<?xml version="1.0" encoding="UTF-8"?>
<svg version="1.1" viewBox="0 0 952 848" width="238" height="212" xmlns="http://www.w3.org/2000/svg">
<path transform="translate(0)" d="m0 0h952v848h-952z" fill="#FB0426"/>
<path transform="translate(0)" d="m0 0h952v848h-952zm163 56-1 1-1 39-2 59v-31l-1-1-50 1-14 1-1 4-1 41-1 24-59 1-9 1-1 204h59l8 4 2 2 1 58 1 5 2 1 48 2h16l2 11 2 58 44 1h22l1-9v-20l1 34 1 10 1 53 4 2 60 2 4 1 1 8 1 7 1 52h50l2 2h12l1-5 2 3h18l10 1 27 1h-53l1 12 1 56 1 1 60 1 6 1 2 6 1 7 1 53h61l1-58 1-7v-52l1-22 69-1 1-1 2-44 1 48 2 1 8-2 2-1h53l1-2 1-43 1-21-3-2h-31l32-1 1-56 1 56 10-1 58-1 1-1 1-69 3 1 20-1h42l2-1 1-13 1-31 1-17 1-6-60 1 46-1 11-1 1-1v-69l70-1 1-1 1-127 1-32v160l1 3 5-2 5-3h54l2-1 1-40v-161l-4-1h-23l-29-1-11-2-2-9-1-4-1-53-2-2-58-1-8-1-2-30-1-36-23-1h-34l-146 1-1 5-1 41-2 20-68 2-1 5-1 64-8 1h-62l-1 5-2-5-1-10-1-54-2-5-3-1-48-1-12-2-3-1-2-10-1-54-7-1z" fill="#FEFEFE"/>
<path transform="translate(159,192)" d="m0 0 18 1 121 1 1 1v63l-1 1-17 1h-52l1 39v34l-4 1-63-1-2-4-3-37-1-19v-38l1-42z" fill="#FEFEFE"/>
<path transform="translate(864,194)" d="m0 0 11 1 29 1h26l1 1v161l-1 40-2 1h-54l-8 5h-2l-1-3v-138z" fill="#060102"/>
<path transform="translate(163,56)" d="m0 0h199l4 1 1 65-3 1-50-1h-116l-37 1v-27l1-39z" fill="#010101"/>
<path transform="translate(732,56)" d="m0 0h34l23 1 1 36 1 19v11l-84-1-55-1h-52l-16 1-1-5 1-14 1-45 1-1z" fill="#010101"/>
<path transform="translate(78,194)" d="m0 0h10v3l-1 1v204l-6-2h-59l1-204 9-1z" fill="#040101"/>
<path transform="translate(579,123)" d="m0 0 3 1-1 38-2 29-1 1-28 1h-37v-63l1-5z" fill="#020101"/>
<path transform="translate(512,684)" d="m0 0h68l-1 10-1 40-1 18-55 1-11 1-1-1v-18l1-50z" fill="#050102"/>
<path transform="translate(719,543)" d="m0 0 2 1-1 66-1 1-58 1-10 1v-66l1-1 45-1z" fill="#040202"/>
<path transform="translate(372,125)" d="m0 0h60l4 2 1 4 1 62-1 1h-24l-40-1-3-2v-60z" fill="#010101"/>
<path transform="translate(373,684)" d="m0 0h42l24 1 1 1 1 68-65-1-1-1-1-56z" fill="#030102"/>
<path transform="translate(859,402)" d="m0 0 4 4-2 7-1 11-1 45-59 1-5 3-3-1v-69z" fill="#050102"/>
<path transform="translate(793,123)" d="m0 0 7 1 58 1 2 2 1 53 2 8-1 5-22-1-45-1-2-2v-28l-1-37z" fill="#020202"/>
<path transform="translate(789,473)" d="m0 0h3l-1 6-1 17-1 31-1 13-2 1h-42l-21 1-1-1v-66l17-1z" fill="#070102"/>
<path transform="translate(648,614)" d="m0 0 3 3-1 20-1 43-1 2h-54l-3 2-7 1-1-1-1-68 20-1z" fill="#010101"/>
<path transform="translate(148,123)" d="m0 0h10l1 2-1 59v9l-11-2h-12l-39 3h-4v-24l1-41 1-4 14-1z" fill="#010101"/>
<path transform="translate(162,474)" d="m0 0 66 1 1 4v23l1 33-1 7h-22l-44-1-2-66z" fill="#010101"/>
<path transform="translate(286,543)" d="m0 0 11 1v54l1 15-1 1-60-2-4-2-1-53-1-12z" fill="#020101"/>
<path transform="translate(103,402)" d="m0 0 51 1 2 28 1 25 1 16h-15l-48-2-2-1-1-5-1-58-1-3z" fill="#040101"/>
<path transform="translate(301,615)" d="m0 0 48 1 20 1-1 67h-12l-3-2h-49l-1-52-2-11z" fill="#020102"/>
<path transform="translate(442,195)" d="m0 0h67l1 31v18l-1 15-45 1h-20l-2-4z" fill="#010101"/>
<path transform="translate(443,755)" d="m0 0h65l1 5-1 3-1 58h-61l-1-53z" fill="#050102"/>
<path transform="translate(163,56)" d="m0 0h199l4 1 1 60h-1l-2-7-1-51h-189l-8 1-1 26h-2v22l-2 4v-16l1-39z" fill="#6F111F"/>
<path transform="translate(286,543)" d="m0 0h6l2 2-30 1h-31v5l4-1 1 3v43l-1 9 30 1 14 1 4 4 3 2h-28l-23-1-4-2-1-53-1-12z" fill="#27181C"/>
<path transform="translate(579,123)" d="m0 0 3 1-1 38-2 29-1 1-28 1h-37l1-3h61l2-1 2-34v-28l-3-1-6 2-28 2h-17l-11-1v-4z" fill="#3F161D"/>
<path transform="translate(442,195)" d="m0 0h67l1 31v18l-1 15-45 1h-20l-2-4zm63 1-2 2h-47l-12-1-1 1 1 58 1 2h57l6-2v-54l-1-6z" fill="#1E191C"/>
<path transform="translate(161,477)" d="m0 0h1l1 5 3 3-1 53h46l5 2h11l1-38h1l1 33-1 7h-22l-44-1z" fill="#45151D"/>
<path transform="translate(863,215)" d="m0 0h1v190l-4-2v-3l1-127z" fill="#FDFDFD"/>
<path transform="translate(790,112)" d="m0 0h1v11l-84-1-55-1h-52l-16 1-1-5 1 3 21-2h28l129 2h27z" fill="#1F191C"/>
<path transform="translate(108,124)" d="m0 0h40l-2 4-4 1-13 1h-33l1 6h-2l-1 33h-1v-40l1-4z" fill="#36171D"/>
<path transform="translate(793,123)" d="m0 0 7 1 58 1 2 2v48h-1l-1-15v-32l-3 1h-44l-11-2-6-2v5l-2-3z" fill="#64121F"/>
<path transform="translate(732,56)" d="m0 0h34l23 1 1 43h-1l-1-6-1-34-3-1h-196l-2 3-1-4 1-1z" fill="#4D151E"/>
<path transform="translate(386,125)" d="m0 0h46l4 2 1 4 1 59h-2l-1-2-1-21v-38l-8-1-40-2z" fill="#64121F"/>
<path transform="translate(103,402)" d="m0 0 51 1 2 28 1 25 1 16h-15l-48-2v-1l32-1 29 3-1-13-2-45-1-8-53-1z" fill="#2A181C"/>
<path transform="translate(78,194)" d="m0 0h10v3l-1 1v197h-1l-1-128v-72h-7z" fill="#1C1A1C"/>
<path transform="translate(579,123)" d="m0 0 3 1-1 38-2 29-1 1-28 1h-37l1-3h61l2-1 2-34v-28l-3-3z" fill="#1C1A1C"/>
<path transform="translate(442,211)" d="m0 0h2l1 47 57-1 5-1 1-30h2v18l-1 15-45 1h-20l-2-4z" fill="#1C1A1C"/>
<path transform="translate(148,123)" d="m0 0h10l1 2-1 59v9l-11-2h-12l-24 2h-15v-1l34-3h25l1-3v-31l1-31h-9z" fill="#20191C"/>
<path transform="translate(374,693)" d="m0 0h3l1 2-1 39v17l5-1 40 2v1h-46l-1-1z" fill="#69121F"/>
<path transform="translate(370,131)" d="m0 0h1l1 7 1 52 11 1 51 1 1-2h2l-1 4h-24l-40-1-3-2z" fill="#1E191C"/>
<path transform="translate(23,359)" d="m0 0h1v38l16-1 36 1 5 1v1l-59 1z" fill="#2F181C"/>
<path transform="translate(303,623)" d="m0 0h1l1 6 1 50 48 1-1 2h-49z" fill="#54141E"/>
<path transform="translate(377,125)" d="m0 0 30 1 23 1 2 2-6 1h-30l-16-3z" fill="#1C1A1C"/>
<path transform="translate(790,112)" d="m0 0h1v11l-84-1v-2h82z" fill="#23191C"/>
<path transform="translate(32,195)" d="m0 0h41v1l-6 1-1 2-13-1v-1h-13l-6 1h-8l-1 58h-1v-60z" fill="#42161D"/>
<path transform="translate(162,57)" d="m0 0h18l-2 2-12 1-1 26h-2v22l-2 4v-16z" fill="#4D151E"/>
<path transform="translate(233,602)" d="m0 0h1v7l12 1 27-1 9 2v2h-22l-23-1-4-2z" fill="#FB0426"/>
<path transform="translate(447,766)" d="m0 0h2v42h-1l-1 12h-1v-51z" fill="#1C1A1C"/>
<path transform="translate(363,57)" d="m0 0h3l1 60h-1l-2-7z" fill="#7C1020"/>
<path transform="translate(648,622)" d="m0 0h2l-1 58h-1l-1-23v-33z" fill="#53141E"/>
<path transform="translate(376,734)" d="m0 0h1v17l5-1 40 2v1h-46z" fill="#850F20"/>
<path transform="translate(386,125)" d="m0 0h46l3 2-9 1-40-2z" fill="#FB0426"/>
<path transform="translate(78,194)" d="m0 0h10v3l-1 1-1 58h-1v-61h-7z" fill="#38171D"/>
<path transform="translate(595,679)" d="m0 0 15 1h38v2h-55v-2z" fill="#1C1A1C"/>
<path transform="translate(576,694)" d="m0 0h1l1 6v34h-1l-2-25v-11z" fill="#40161D"/>
<path transform="translate(118,468)" d="m0 0h9l7 2v1h-21l-18-1v-1z" fill="#FB0426"/>
<path transform="translate(442,195)" d="m0 0 25 1v1l-8 1-3 1-12-1-1 13h-1z" fill="#68121F"/>
<path transform="translate(50,195)" d="m0 0h23v1l-6 1-1 2-13-1z" fill="#1B191B"/>
<path transform="translate(579,123)" d="m0 0 3 1-1 30h-1l-1-27-3-3z" fill="#25191C"/>
<path transform="translate(367,117)" d="m0 0 2 4 7 2 8 1v1l-12 1-1 5h-1v-8l-6 1v-2h3z" fill="#950E21"/>
<path transform="translate(595,679)" d="m0 0 15 1 1 2h-18v-2z" fill="#28181C"/>
<path transform="translate(449,196)" d="m0 0h18v1l-8 1-3 1-7-1z" fill="#751120"/>
<path transform="translate(648,622)" d="m0 0h2v15h-1l-1-8h-1z" fill="#8B0F21"/>
</svg>
