<?xml version="1.0" encoding="UTF-8"?>
<svg version="1.1" viewBox="0 0 1024 1024" width="256" height="256" xmlns="http://www.w3.org/2000/svg">
<path transform="translate(500,90)" d="m0 0h20l27 1 32 4 30 6 30 8 33 12 16 7 16 8 22 12 19 12 17 12 14 11 11 9 15 14 23 23 9 11 8 9 15 20 12 18 9 15 10 18 13 28 10 27 9 29 6 25 6 37 1 14v62l-2 22-6 35-8 32-9 27-12 29-16 32-15 24-9 13-9 12-11 14-11 12-7 8-22 22-8 7-13 11-11 8-18 13-18 11-21 12-27 13-31 12-19 6-23 6-25 5-28 4-10 1-24 1h-17l-26-1-35-5-26-5-30-8-33-12-20-9-17-8-21-12-19-12-19-14-13-10-14-13-8-7-22-22-7-8-9-10-10-13-11-15-10-15-11-18-12-23-11-26-11-33-8-31-5-26-3-19-1-14v-67l3-26 6-33 8-30 9-26 7-18 7-15 13-25 14-23 12-17 16-21 9-10 22-24 13-12 14-12 18-14 14-10 24-15 18-10 27-13 26-10 25-8 28-7 22-4 20-3 10-1z" fill="#717272"/>
<path transform="translate(500,90)" d="m0 0h20l27 1 32 4 30 6 30 8 33 12 16 7 16 8 22 12 19 12 17 12 14 11 11 9 15 14 23 23 9 11 8 9 15 20 12 18 9 15 10 18 13 28 10 27 1 3 1 14 1 1v5h3l7 28 3 16 1 5v8l-5-3-2-1-4-25-8-34v-4h-2l3 11 5 28 3 24h-16l-72-3h-130l-12-5-10-6-11-6-15-9-11-6-12-7-21-12-26-15-19-11-10-6-23-13-13-8-12-6-13-8-18-10-22-13-28-16-11-7-15-7-9-3-11-1-11 6-6 8-2 8-1 6-1 44 1 292 1 101 3 5 4 3-1 3h-6l-8-5-3-5-1-7v-221l-36 12-38 13-39 16-23 10-21 10-19 10-18 10-30 20-10 6-3 2 2 10 6 18 9 21 16 32 12 20 16 24 7 9 9 12 4 5-2 1v-2h-3l-1-4-5-2-4-4-3-5-10-13-9-13-11-17-9-16-7-14-4-4-9-24-9-30-6-25-4-21-3-19-1-14v-67l3-26 6-33 8-30 9-26 7-18 7-15 13-25 14-23 12-17 16-21 9-10 22-24 13-12 14-12 18-14 14-10 24-15 18-10 27-13 26-10 25-8 28-7 22-4 20-3 10-1z"/>
<path transform="translate(381,276)" d="m0 0 10 1 19 9 20 12 28 16 17 10 14 8 24 14 23 13 26 15 22 13 26 15 41 24 15 9 18 10 6 3 14 3 9 5 11 7 2 2 4 1v2l6 2 10 6 14 9 3 2v2h3l7 8 7 7 2 4v12l-3 7h-2l-2 4-9 8-11 7-20 12-28 16-43 25-9 5-24 14-18 10-17 10-21 12-10 6-14 8-19 11-23 13-26 15-9 6-10 5-22 13-23 13-18 10-8 3-15 1-9-2v-3-3l-4-2-4-4-2-4-1-143 1-100 1-54 1-137 3-12 4-6 9-7z" fill="#EAF4F4"/>
<path transform="translate(412,346)" d="m0 0h7l12 5 21 12 11 6 24 14 22 13 23 13 9 6 8 4 17 10 22 13 11 6 10 6 1 3h2l6 1 16 9 15 9 11 6 17 10 26 14 4 4 4 2-1 5-7 8-11 7-19 11-10 6-11 6-21 12-43 25-27 15-9 6-12 6-13 8-28 16-26 15-28 16-12 7-16 8-9 3-4-3v-6l-2-1v-13l1-5 1-169 1-2 3-1-2-2v-50l1-79 1-10z" fill="#707272"/>
<path transform="translate(912,381)" d="m0 0 2 3 8 28 6 28 4 26 1 14v62l-2 22-6 35-8 32-9 27-12 29-16 32-15 24-9 13-9 12-11 14-11 12-7 8-22 22-8 7-13 11-11 8-18 13-18 11-21 12-27 13-31 12-19 6-23 6-25 5-28 4-10 1-24 1h-17l-26-1-35-5-26-5-30-8-33-12-20-9-17-8-21-12-19-12-19-14-13-10-14-13-8-7-22-22-7-8-9-10-10-13-11-15-10-15-11-18-12-23-5-11 1-3 5 7 8 16 8 14 10 15 13 18 6 7v3l4 2v2l5 2 3 7 7 8 5 5 7 8 6 4 5 5 4 3v2l4 2 12 9 13 9 15 10 26 15 9 5v2l9 3 19 9 12 5 10 4 12 5 24 8 21 5 17 1 11 3 26 3 15 1h45l28-3 36-6 29-7 36-12 23-10 30-15 8-5 18-11 17-12 7-5 1-2 5-3 16-14 5-4 26-26 7-8 10-11 9-12 5-6 4-4 2-5 5-5 5-10 4-4 3-7 1-2h2l1-5 4-7h2l1-5 10-21 5-12 5-13 4-10 9-32 7-34 4-28 2-22 1-59 8 3-1-11-4-20-5-20v-4h-3l-2-6z" fill="#BFBFBF"/>
<path transform="translate(388,308)" d="m0 0 5 1 20 11 15 9 56 32 26 15 23 13 13 8 77 44 48 28 25 14 22 13 20 12 10 5v3l-13 7-23 13-13 8-11 6-21 12-71 41-24 14-28 16-52 30-24 14-28 16-17 10-30 18-4 1-1-1zm24 38-4 5-1 10-1 85v44l2 2-3 1-1 5-1 166-1 5v13l2 2v5l5 3 12-5 21-11 24-14 23-13 26-15 24-14 10-6 11-6 21-12 24-14 23-13 21-12 11-7 11-6 16-9 16-10 7-8 1-5-4-2-4-4-28-15-22-13-16-9-19-11-6-1h-2l-2-4-13-7-14-8-24-14-13-8-11-6-17-10-19-11-24-14-17-10-22-12-10-5-5-2z" fill="#00F2F9"/>
<path transform="translate(412,346)" d="m0 0h7l12 5 21 12 11 6 24 14 22 13 23 13 9 6 8 4 17 10 22 13 11 6 10 6 1 3-26 4-75 10-35 6-33 7-26 6-8 1-1-1v-50l1-79 1-10z"/>
<path transform="translate(381,276)" d="m0 0 10 1 19 9 20 12 28 16 17 10 14 8 24 14 23 13 26 15 22 13 26 15 41 24 15 9 18 10 6 3 14 3 9 5 11 7 2 2 4 1v2l6 2 10 6 14 9 3 2v2h3l7 8 7 7 2 4v12l-3 7h-2l-2 4-9 8-11 7-20 12-28 16-43 25-9 5-24 14-18 10-17 10-21 12-10 6-14 8-19 11-23 13-26 15-9 6-10 5-22 13-23 13-18 10-8 3-15 1-9-2v-3-3l-4-2-4-4-2-4-1-143 1-100 1-54 1-137 3-12 4-6 9-7zm-4 11-3 4-1 10v177l1 254 2 8 3 5 3 3 1 2h10l11-5 19-10 16-9 12-7 11-6 13-8 10-5 19-11 6-3v-2l4-1 12-7 15-9 6-3 14-8 27-16 10-6 11-6 10-6 11-6 24-14 11-6 10-6 9-5 22-13 16-9 13-8 11-6 15-10 9-7v-2l3-1 6-10v-11h-1v6h-2v-2l-8-5-17-8-13-8-11-6-48-28-14-8-22-13-11-6-36-21-35-20-17-10-28-16-24-14-14-8-15-9-11-6-24-14-25-14-17-10z" fill="#00F2F9"/>
<path transform="translate(378,272)" d="m0 0 11 1 12 4 19 10 13 8 28 16 25 15 11 6 17 10 11 6 35 20 45 26 21 12 10 6 13 8 11 6 15 9 11 6 11 5 17 3v1l13 1 3 2 13 8 6 3v2l3-1 5 4 11 6 12 8v2l4 1 6 5 6 12 1 3 1 10-3 14-4 6-3 5-6 7-4 1-1 3-6 3-7 5-5 1v2l-11 6-12 7-3 1-3 3-10 5h-2v2l-7 2v2l-5 1v2l-12 7h-3v2l-14 8-11 6-4 3-10 5-9 6-14 7-6 5-5 2h-3l-1 3-14 7-5 2v2l-8 4-13 7-5 3h-2v2l-8 4-12 7-6 3h-2v2l-12 6h-2v2l-13 7-8 4-11 7-9 5-5 3-11 6-3 2h-3l-1 3-10 5h-3v2l-10 6-3 1-1 2-10 4-7 4-9 5-13 5h-14l-12-3-11-9v-2l-3-1v-3l-4-2-5-8 5 1 8 5h6l-1-3-5-5-1-2-1-101-1-294 1-42 2-12 6-9 5-4zm3 4-7 3-8 7-4 10-1 6-1 137-1 54-1 117 1 126 4 7 4 3h2l-1 5 4 2 11 1 13-2 16-8 25-14 34-20 11-6 17-10 35-20 13-8 11-6 16-9 15-9 21-12 23-13 17-10 14-8 20-12 11-6 28-16 19-11 9-6 7-4 11-7 8-8v-2h2l3-7v-12l-4-6-7-7-5-6h-3v-2l-15-10-11-6-5-3h-2v-2l-5-2-10-7-10-5-6-2-11-3-17-9-44-26-45-26-29-17-21-12-26-15-19-11-9-5-10-6-26-15-38-22-13-6z" fill="#7A8080"/>
<path transform="translate(930,474)" d="m0 0h1l1 8v73l-5 34-7 31-8 27-10 26-9 20-13 26-15 24-9 13-9 12-11 14-11 12-7 8-22 22-8 7-13 11-11 8-18 13-18 11-21 12-27 13-31 12-19 6-23 6-25 5-28 4-10 1-24 1h-17l-26-1-35-5-26-5-30-8-33-12-20-9-17-8-21-12-19-12-19-14-13-10-14-13-8-7-22-22-7-8-4-4 1-2 24 24 8 7 13 11 12 10 5 5 11 8 16 10 9 6 11 6 10 6 16 8 25 11 25 9 27 8 29 6 28 4 29 2h35l28-2 33-5 27-6 21-6 26-9 17-7 15-7 21-11 24-15 15-10 13-10 9-7 14-12 7-7 8-7 10-10 2-4 7-6 3-5 5-5 7-8 9-12 2-4h2l1-4 5-5 11-18 9-15 14-27 9-20 8-21 9-30 7-29 5-38 2-41 1-2z" fill="#030A0A"/>
<path transform="translate(379,264)" d="m0 0 13 1 13 5 24 13 15 9 18 10 17 10 21 12 20 12 11 6 17 10 11 6 17 10 9 5 19 11 3 1v2l6 2 24 14 11 6v2l5 1 16 10 11 6 20 11 11 7 10 1v1h-21l-12-5-10-6-11-6-15-9-11-6-12-7-21-12-26-15-19-11-10-6-23-13-13-8-12-6-13-8-18-10-22-13-28-16-11-7-15-7-9-3-11-1-11 6-6 8-2 8-1 6-1 44 1 292 1 101 3 5 4 3-1 3h-6l-8-5-3-5-1-7v-221l-2-1 2-2 1-8v-174l1-27 2-13 3-6 7-8 8-5 9-2z" fill="#093435"/>
<path transform="translate(751,500)" d="m0 0 4 1 16 8 5 3v2h2v-6h1v11l-7 11h-2l-2 4-10 7-20 13-10 5-8 5-10 6-9 5-22 13-16 9-18 10-11 7-11 6-22 13-6 3-24 14-13 8-11 6-16 9-15 9-3 2h-3v2l-12 6-16 10-12 6-13 8-22 12-9 5-11 6-12 7-11 4h-9l-2-4-4-4 1-2h6l19-11 15-9 26-15 22-13 21-12 52-30 17-10 56-32 24-14 28-16 17-10 49-28 16-9 14-8 8-6 1-5-3-3-15-8z" fill="#89E8EA"/>
<path transform="translate(405,333)" d="m0 0 10 1 16 7 22 12 24 14 28 16 26 15 24 14 21 12 22 13 20 12 13 8 63 36 17 10 5 5 1 5-5 10-7 8-9 5h-2v2l-8 4-8 5-16 8-4 1-1 3-16 8h-3v2l-6 3h-2v2l-17 9-3 1-3 3-5 1v2l-14 7-8 5-11 6h-3v2l-7 2v2l-6 1v2l-18 9-18 10-5 3h-3v2l-11 6-35 19-10 6-23 13-17 8-6 2h-5l-2-2 1-11-1-8-1 7h-1l-1-6v-35l1-33 1-6h1l1-78-1-27-2-3v-135l1-14 3-9zm7 13-4 5-1 10-1 85v44l2 2-3 1-1 5-1 166-1 5v13l2 2v5l5 3 12-5 21-11 24-14 23-13 26-15 24-14 10-6 11-6 21-12 24-14 23-13 21-12 11-7 11-6 16-9 16-10 7-8 1-5-4-2-4-4-28-15-22-13-16-9-19-11-6-1h-2l-2-4-13-7-14-8-24-14-13-8-11-6-17-10-19-11-24-14-17-10-22-12-10-5-5-2z" fill="#15C0CA"/>
<path transform="translate(402,328)" d="m0 0h8l13 6 12 7 11 6 14 8 41 24 21 12 24 14 26 15 24 14 15 9 14 9-2 1-44-26-19-11-24-14-52-30-35-20-12-7-19-9-7-2h-6l-3 1-2 9-1 14v135l2 3 1 27-1 82-2 2-1 33v35l1-1 1-13h1l1 24-1 8 1 1 8-1 14-6 22-12 14-8 23-13 22-12 4-1v-2l16-8 13-8 7-3 6-3h2v-2l6-1v-2l3-2h4v-2l14-7 4-3 11-6 4-2h3v-2l7-2 1-3 17-8 3-1v-2l6-3h2v-2l19-9 3-3 15-8 10-5 5-3 4-1v-2l11-6 3-4h2l2-5 4-8-1-7-4-2h3l6 5 1 4-3 14-5 7-5 1v2l-9 7-11 6-21 12-71 41-24 14-28 16-52 30-24 14-42 24-6 1-3-2v-2h-2v-2l-15 1-3-5-1-7v-332l1-19 3-5z" fill="#00DDE7"/>
<path transform="translate(125,680)" d="m0 0 5 5 8 16 9 16 10 15 13 18 6 7v3l4 2v2l5 2 3 7 7 8 5 5 7 8 6 4 5 5 4 3v2l4 2 12 9 13 9 15 10 26 15 9 5-2 2 16 9 29 14 18 7 33 10 15 4 15 3 31 5 50 4h17l23-2 32-4 25-5 25-6 11-3 9-3 7-3 9-3 9-2v-2l8-3 19-9 16-8 14-9h2l1-2 11-6 2-2 5-2 5-5 6-5 5-2 5-5 6-4 7-8 9-8 5-3 7-8 6-4-2 4-15 15-8 7-12 11-17 13-11 8-15 10-25 15-23 12-29 12-29 10-32 8-28 5-25 3-18 1h-35l-29-2-28-4-29-6-27-8-20-7-26-11-17-9-12-6-9-6-9-5-16-10-14-10-5-4-5-5-11-10-11-9-15-14-15-15-6-5-10-13-11-15-10-15-11-18-12-23-5-11z" fill="#969797"/>
<path transform="translate(412,346)" d="m0 0h7l12 5 21 12 11 6 24 14 22 13 23 13 9 6 8 4 17 10 22 13 11 6 10 6 1 3-20 3-4-1 2-2-9-4-7-3-8-6-24-14-15-9-28-16-10-6-11-7-11-6-9-6-11-6-14-7-9-1-2 6-1 19v96h6l-4 2-14 2-1-1v-50l1-79 1-10z" fill="#061E1E"/>
<path transform="translate(708,511)" d="m0 0 3 1-1 5-7 8-11 7-19 11-10 6-11 6-21 12-43 25-27 15-9 6-12 6-13 8-28 16-26 15-28 16-12 7-16 8-9 3-4-3v-5l12-8 5-3h2v-2l12-6 17-10 26-14 17-10 29-16 50-28 21-12 23-13 10-6 11-6 25-14 2-2 4-2 3-2 4-3 16-9 12-6z" fill="#025559"/>
<path transform="translate(705,452)" d="m0 0h6l14 7 14 8 6 3 10 6 11 6 8 6 5 4 8 10 2 6v11l-3 8-4 6-9 9-15 10-10 6-6 3-15 9-11 6-19 11-14 8-24 14-14 8-6 2v2l-11 6-16 9-19 11-14 8-24 14-14 8h-2v2l-8 4-16 9-10 6-21 12-16 9-10 6-24 14-14 8-19 10-12 3h-14l-8-3-9-5v-1h11l9 2 15-1 12-5 18-10 21-12 15-9 12-7 11-6 17-10 35-20 13-8 11-6 16-9 15-9 21-12 23-13 17-10 14-8 20-12 11-6 28-16 19-11 9-6 7-4 11-7 7-7 1-2h2l2-7v-12l-4-6-7-7v-2l-4-2v-2h-3v-2l-4-2-13-8-16-9v-2l-5-1-10-7-10-5z" fill="#8B9DA0"/>
<path transform="translate(374,289)" d="m0 0 1 2-1 10v177l1 254 2 8 2 4 4 4-1 2h-9l-2-1v-3l-5-1-3-2-2-6v-91l2-52 2-38 1-40v-30l2-25 1-52v-48l-1-46v-14l4-10z" fill="#00F2F9"/>
<path transform="translate(381,281)" d="m0 0h7l13 4 22 13 16 9 11 6 12 7 9 5 36 21 18 10 11 7 10 5 5 3 17 10 10 6 11 6 10 6 11 6 26 15 23 13 13 8-2 1-28-15-19-10-10-6-22-11v-2l-6-2-18-10-5-3-12-7-14-7-5-4-4-2-16-9-5-3-4-2-8-5-7-4-5-3-6-4-7-3-12-7-6-3-7-4-12-7-12-6-10-6-13-6-7-3-3-1h-11l-3 3-4 12v22l1 37v48l-1 56-2 21v35l-2 59-2 37-1 33v81l-2 1v-140l1-76 2-76 1-72v-56l2-17 5-9z" fill="#00DCE6"/>
<path transform="translate(379,260)" d="m0 0h11l18 7 6 3 23 13 9 6 10 5 24 14 16 9 25 15 11 6 24 14 18 10 23 13 15 9 46 26 17 10 16 9 9 5 14 10 8 2h18l30-1h22l37 1v1l-80 1h-28l-10-1-20-12-11-6-14-8-15-9-3-1v-2l-6-2-24-14-11-6v-2l-5-1-13-8-27-15-10-6-11-6-17-10-11-6-15-9-21-12-24-14-16-9-10-6-26-14-9-3-13-1-7 2-8 4-7 6-4 6-2 9-1 7-1 34v171l-2 6h-2l-1-6v-45l-1-99 1-38v-16l1-14 4-13 4-6 9-7 9-4z" fill="#061E1E"/>
<path transform="translate(378,272)" d="m0 0 11 1 12 4 19 10 13 8 28 16 25 15 11 6 17 10 11 6 35 20 45 26 21 12 10 6 13 8 11 6 15 9 11 6 11 5 17 3-2 2-8 1-16-4-17-9-44-26-45-26-29-17-21-12-26-15-19-11-9-5-10-6-26-15-38-22-13-6-10-1-7 3-7 6-4 10-1 6-1 137-1 54-1 117 1 126 3 5v2l4 2 3 3-2 3h-5v-2l2-1-1-3-5-5-1-2-1-101-1-294 1-42 2-12 6-9 5-4z" fill="#008B92"/>
<path transform="translate(412,491)" d="m0 0 5 1 1 4v10l1 6v105l-2 30v9l1 9 3 2 1 2 4-3 5-2 8-5 14-8 12-7 6-3h2l-1 4-29 16-15 9-5 1v2l-7 4-6 4-5 3-3-2v-13l1-5 1-169 1-2z" fill="#7A8080"/>
<path transform="translate(712,450)" d="m0 0 8 2v2l5 1 11 6 8 4 8 5 7 3 10 7 3 1 2 3 3 1 5 5 8 9 3 6 1 12-3 10-3 6h-2l-1 4-5 5-6 5-4 2-1 2-7 4-10 6-18 10-11 7-11 6-4 1v2l-11 6h-2v2l-16 8h-3l-1 3-8 4-5 3-8 4h-2l-1 3-12 6-12 7-13 8-15 8-4 3-11 6-6 3h-2l-1 3-3-1-1 3-21 11-9 6-7 4-7 3-4 4-5 2h-3l-1 3-14 7-6 4-4 2h-3l-1 3-12 6-9 6-17 9-12 8-8 4-5 3-14 8-9 2-3 2-6 1h-12l-17-6-6-5-1-3 3-1 5 1-2 2 7 5 7 2h14l12-3 16-8 10-6 21-12 19-11 13-8 11-6 17-10 11-6 12-7 5-3h3v-2l27-15 15-9 23-13 15-9 11-6 6-4h3v-2l15-8 24-14 14-8 24-14 21-12 8-5 11-6 11-7 9-7 7-7 4-8 1-4v-11l-3-8-8-9-8-6-11-7-12-6-4-3-16-8-11-6-9-3v-1z" fill="#7F8C8F"/>
<path transform="translate(385,268)" d="m0 0 13 3 16 8 10 6 22 12 35 20 17 10 16 9 24 14 16 9 25 15 11 6 28 16 24 14 16 9 19 11 11 7 20 10v1h-8l-12-5-10-6-11-6-15-9-11-6-12-7-21-12-26-15-19-11-10-6-23-13-13-8-12-6-13-8-18-10-22-13-28-16-11-7-15-7-9-3-11-1-11 6-6 8-2 8-1 6-1 44v243h-1l-1-69-1-40-1-21-1-58v-78l1-25 3-11 5-8 6-5 8-4z" fill="#02565A"/>
<path transform="translate(409,339)" d="m0 0h7l14 5 17 9 16 9 16 10 11 6 24 14 13 8 12 6v2l4 1 19 11 3 1v2l6 2 21 12 24 15 23 12 21 12 26 15 9 6 7 4 2 4-11-3-23-13-17-10-16-9-19-11-6-1-8 1 2-2h4l-4-4-11-6-14-8-24-14-13-8-11-6-17-10-19-11-24-14-17-10-22-12-10-5-5-2h-7l-3 4-1 10-1 85v44l3 2-7 1-1-1-1-45v-57l1-28 1-14 3-7z" fill="#008B92"/>
<path transform="translate(381,276)" d="m0 0 10 1 19 9 20 12 28 16 17 10 14 8 24 14 23 13 26 15 22 13 26 15 41 24 15 9 18 10 6 3 14 3 9 5 11 7 2 2 4 1v2l6 2 10 6 14 9 3 2v2h3l6 7h-3l-15-9-39-22-15-9-8-4-5-2-11-6-26-15-23-13-17-10-16-9-13-8-6-3-14-8-10-6-9-5-16-9-15-9-11-6-29-17-9-5-19-11-14-8-6-3-22-13-13-4h-7l-10 5-4 8-2 17v68l-2 106-1 30-1 76v140l2 9-3-3-1-2-1-143 1-100 1-54 1-137 3-12 4-6 9-7z" fill="#15C0CA"/>
<path transform="translate(383,255)" d="m0 0 13 2 14 7 3 1v2l5 1 17 10 9 5 4 2v2l4 1 3 1v2l5 1 17 10 13 8 14 7v2l6 2 11 7 33 18v2l6 2 11 6 16 9 7 5 5 2 24 14 9 5 11 6 7 5 5 2 17 10 6 4 4 1v2l6 2 8 5 8 3 4 2v2h3v2l4 2 4 4v2l3 1h-6l-9-6-10-7-10-5-17-10-16-9-15-9-11-6-25-14-11-7-12-7-10-5-21-12-24-14-23-13-11-7-11-6-19-11-12-7-11-6-13-8-11-6-13-6-11-4h-11l-8 2-9 4-7 6h-2l-2 4-4 11-1 4-1 18v16l-1 35 1 119v31l-2-3-1-2-1-11-1-63v-127l2-15 2-10 8-11 9-8 16-5z" fill="#040C0C"/>
<path transform="translate(424,365)" d="m0 0 8 1 13 7 12 7 16 10 11 6 20 12 28 16 8 5 9 5 13 8 9 6 4 3 12 4 2 3-5 3-23 3-4-1 17-3h3l-3-4-13-5-11-7-9-6-21-13-10-6-9-6-11-6-5-3-7-4-10-7-6-3-15-10-8-4-4-1h-7l-3 6-1 11v87l-1 7h6v1h-10l-1-4v-100l1-11 3-6z" fill="#040C0C"/>
<path transform="translate(412,346)" d="m0 0h7l12 5 21 12 11 6 24 14 22 13 23 13 9 6 8 4 17 10 22 13 11 6 10 6 1 3-9 1-5-5-14-8-13-8-26-15-43-25-22-13-11-6-21-12-21-11-5-2h-5l-2 2-1 9-1 92v34l-4 1-1-1v-50l1-79 1-10z" fill="#02565A"/>
<path transform="translate(402,328)" d="m0 0h8l13 6 12 7 11 6 14 8 41 24 21 12 24 14 26 15 24 14 15 9 14 9-2 1-44-26-19-11-24-14-52-30-35-20-12-7-19-9-7-2h-6l-3 1-2 9-1 14v135l2 3 1 27-1 82-2 2-1 33v35l1-1 1-13h1l1 24-1 8 5 2v2h-6l-3-5-1-7v-332l1-19 3-5z" fill="#00DCE6"/>
<path transform="translate(612,457)" d="m0 0 6 1 16 9 15 9 11 6 17 10 26 14 4 4-2 3-16 8-14 8v-3l5-5 4-3v-8l-5-2-11-6-12-6-13-8-12-7-5-3-17-9-11-6-1-3z" fill="#7A8080"/>
<path transform="translate(405,493)" d="m0 0h5l1 2 2 24v25l-3 72 1 51 3 5 1 5-5 4-5 3-3-2v-13l1-5 1-169z" fill="#8B9CA0"/>
<path transform="translate(415,352)" d="m0 0 7 1 21 10 19 11 13 8 11 6 10 6 11 6 28 16 10 6 26 15 15 9 14 9 1 3-3 1h-7l3-2-8-5-18-11-17-10-20-12-23-13-41-24-21-12-10-6-14-6-4 1-2 7-1 24v92l-1 6h7v1l-10 1-1-1v-51l1-74 1-9z" fill="#093435"/>
<path transform="translate(500,90)" d="m0 0h20l27 1 32 4 30 6 30 8 33 12 16 7 16 8 22 12 19 12 17 12 14 11 11 9 15 14 23 23 9 11 8 9 15 20 7 10v2l-4-1-4-5-3-6-1-3h-2l-5-8-2-1-3-5-24-28-17-17-11-9-7-7-13-10-9-6-9-7-18-11v-2l-5-1-13-8-19-10v-2l-7-2-8-4-13-5-10-4-20-7-25-7-9-2-15-3-21-3-16-2-21-2h-27l-29 2-21 2-15 2-10 2h-8l4-2 22-4 20-3 10-1z" fill="#297174"/>
<path transform="translate(776,501)" d="m0 0 5 5 1 2v12l-3 7h-2l-2 4-9 8-11 7-20 12-28 16-43 25-9 5-24 14-18 10-17 10-21 12-10 6-14 8-19 11-23 13-26 15-9 6-10 5-22 13-23 13-18 10-8 3-15 1-9-2v-3-3h2v3h22l11-5 19-10 16-9 12-7 11-6 13-8 10-5 19-11 3-2h3v-2l11-6 17-10 9-5 14-8 27-16 10-6 11-6 10-6 11-6 24-14 11-6 10-6 9-5 22-13 16-9 13-8 11-6 15-10 8-6 7-9 2-4v-11z" fill="#14C0CA"/>
<path transform="translate(708,511)" d="m0 0 3 1-1 5-7 8-11 7-19 11-10 6-11 6-21 12-43 25-27 15-9 6-12 6-13 8-28 16-26 15-28 16-12 7-16 8-9 3-4-3v-5l6-4-1 4 6-1h6l16-8 22-12 13-8 24-14 15-9 21-12 22-13 10-6 11-6 17-10 23-13 22-13 16-9 17-10 23-14 7-6 1-2-5 1-15 8-2-1 14-8 12-6z" fill="#008B92"/>
<path transform="translate(189,782)" d="m0 0 7 6 18 18 8 7 13 11 12 10 5 5 11 8 16 10 9 6 11 6 10 6 16 8 25 11 5 2-3 2 4 3 13 5 15 4 4 2 12 3 12 4 16 4 14 2 6 2v1l-12-1-28-6-28-8-32-12-24-11-22-12-20-12-17-12-13-10-9-7-13-12-8-7-22-22-7-8-4-4z" fill="#154142"/>
<path transform="translate(675,524)" d="m0 0 2 1-3 5-2 2-36 21-24 13-13 8-11 6-27 15-16 9-25 14-27 15-14 8-4-1 4-4 21-12 19-11 21-12 16-9 15-9 11-6 14-8 23-13 16-9 19-11z" fill="#797F80"/>
<path transform="translate(912,381)" d="m0 0 2 3 8 28 6 28 4 26 1 14v62h-1l-1-60-1 16-1 2-2 41-5 38-10 40-10 30-9 21-11 23h-1v-5l7-15 8-18 9-26 5-17 6-26 1-4 2-5 4-25 1-14v-54l-2-30-1-3 6 2-1-11-4-20-5-20v-4h-3l-2-6z" fill="#747778"/>
<path transform="translate(349,543)" d="m0 0 2 3 2 22 2 7v83l-1 18-1 2-1 16 2 21v19l1 2v8l-5-1-1-2z" fill="#061E1E"/>
<path transform="translate(177,256)" d="m0 0 2 1v3l-5 5-10 14-4 7-6 11h-2l-1 4-6 12h-3l-2 7-2 3-2 6-1 2h-2l-1 5-2 3-3 10-5 10-9 27-5 14-6 25-1 8-1 1-5 36-1 28-1 1-1 25h2l1 4v43h-1l-2-12-1-14v-67l3-26 6-33 8-30 9-26 7-18 7-15 13-25 14-23 12-17z" fill="#13676B"/>
<path transform="translate(103,613)" d="m0 0 4 5 3 2 2 10 6 18 9 21 16 32 12 20 16 24 7 9 9 12 4 5-2 1v-2h-3l-1-4-5-2-4-4-3-5-10-13-9-13-11-17-9-16-7-14-4-4-9-24-9-30z" fill="#041212"/>
<path transform="translate(566,593)" d="m0 0 2 1-18 11-28 16-17 10-21 12-19 11-26 15-15 8-5 2h-4l1-3 5-3h2v-2l12-6 17-10 26-14 17-10 29-16 25-14 9-5z" fill="#083839"/>
<path transform="translate(355,588)" d="m0 0h2l1 49 1 101 3 5 4 3-1 3h-6l-7-4 3-1-2-12v-20l-2-18 1-16 1-2 1-18z" fill="#093435"/>
<path transform="translate(701,138)" d="m0 0 18 6 15 9 21 14 16 12 16 13 15 14 23 23 9 11 8 9 15 20 7 10v2l-4-1-4-5-3-6-1-3h-2l-5-8-2-1-3-5-24-28-17-17-11-9-7-7-13-10-9-6-9-7-18-11v-2l-5-1-13-8-13-7z" fill="#194041"/>
<path transform="translate(686,450)" d="m0 0 9 2 20 12 9 5 23 13 14 8 9 6 5 3 3 5-1 3-4-4-8-2v-2l-7-2-3-3-11-6-10-6-11-6-16-10-6-3-14-8-2-4z" fill="#85EAEC"/>
<path transform="translate(408,492)" d="m0 0h5l1 1 1 37v53l-1 79 1 8 4 4-2 1-4-2-1-4-2-2-1-51 3-77v-22l-2-24z" fill="#808D90"/>
<path transform="translate(811,790)" d="m0 0v3l-16 16-8 7-12 11-17 13-11 8-15 10-25 15-23 12-29 12-29 10-32 8-10 1 4-2h5l1-4 1 1 14-1v-2l14-3 13-4 6-3 10-3 20-8 25-12 19-10 16-10 9-6 5-5 5-2 5-5 6-5 5-2 5-5 6-4 7-8 9-8 5-3 7-8z" fill="#727474"/>
<path transform="translate(930,474)" d="m0 0h1l1 8v73l-5 34-2 10h-1l-1-18-2 2 2-17 3-25 2-41 1-2z" fill="#073637"/>
<path transform="translate(902,353)" d="m0 0 2 3 8 22 1 14 1 1v5h3l7 28 3 16 1 5v8l-5-3-2-1-4-25-8-34v-4l-3 1-5-19 1-3 2 2-2-9z" fill="#021314"/>
<path transform="translate(612,457)" d="m0 0 6 1 16 9 15 9 11 6 17 10 26 14 4 4-2 3-6 3-4-1 3-4-4-2v-2l-5-2-17-10-10-6-11-6-15-9-17-9-7-4z" fill="#8B9DA1"/>
<path transform="translate(125,680)" d="m0 0 5 5 8 16 9 16 10 15 13 18 6 7v3l4 2v2l5 2 3 7 7 8h-3l-2-2h-3l-6-5-13-17-14-20-12-20-12-23-5-11z" fill="#B2B4B4"/>
<path transform="translate(405,501)" d="m0 0h1l1 6v163l1 6 4 2-5 5h-3l-2-1v-13l1-5 1-160z" fill="#ABB7B8"/>
<path transform="translate(607,458)" d="m0 0h4l5 5 19 9 9 6 11 6 7 4 18 11 11 6 7 6-2 4 1 2-17 9-6 3 2-4 5-5 8-3 3-4h-2v-3h-2l-2-3-7-4-16-9-8-4v-2l-4-1-12-7-11-6-10-6-6-2-1-2-5-3z" fill="#7F8C8F"/>
<path transform="translate(106,396)" d="m0 0 2 4-6 25-1 8-1 1-5 36-1 28-1 1-1 25h2l1 4v43h-1l-2-12-1-14v-67l3-26 6-33z" fill="#177176"/>
<path transform="translate(847,764)" d="m0 0h2l-2 4-11 14-11 12-7 8-22 22-8 7-13 11-8 6h-2l2-5 4-1 2-4 11-9 8-8 6-4 7-8 4-4h2v-2h2l2-4 9-9 1-2h2l2-4 7-8 3-3 7-8z" fill="#1E3838"/>
<path transform="translate(273,164)" d="m0 0 2 1-7 6-8 7-6 4-3 3h-2l-1 3-5 3-11 11-6 3-7 8-11 11-2 1-2 5-5 4-1 3h-2l-2 4-8 8-1 3-7 4 2-4 10-13 7-7 7-8 14-15 12-11 14-12 18-14z" fill="#2D5051"/>
<path transform="translate(912,381)" d="m0 0 2 3 8 28 6 28 4 26 1 14v62h-1l-1-60-1 5h-2l-2-24-2-11 3 1-1-11-4-20-5-20v-4h-3l-2-6z" fill="#367F83"/>
<path transform="translate(660,536)" d="m0 0 2 2-28 16-29 16-17 10-27 15-16 9-25 14-9 5-2-1 24-14 23-13 11-7 12-6 24-14 14-8 11-6 24-13z" fill="#717272"/>
<path transform="translate(608,102)" d="m0 0 9 1 25 7 30 11 16 7 16 8 11 6-3 1-17-7v-2l-7-2-8-4-13-5-10-4-20-7-25-7-7-1z" fill="#195B5E"/>
<path transform="translate(918,578)" d="m0 0h1v7l-4 16-3 13-2 11-8 24-9 21-11 23h-1v-5l7-15 8-18 9-26 5-17 6-26 1-4z" fill="#8A8B8B"/>
<path transform="translate(923,600)" d="m0 0 1 3-7 28-9 27-12 29-3-1 3-9 7-14 6-20 5-16 1-1 3-14 3-11z" fill="#173F41"/>
<path transform="translate(189,782)" d="m0 0 7 6 18 18 8 7 13 11 12 10 5 6h-2l-1 2-14-12-16-15-19-19-7-8-4-4z" fill="#148086"/>
<path transform="translate(103,613)" d="m0 0 4 5 3 2 2 10 6 18 5 12-1 2-2 6-2-3-10-30-5-19z" fill="#153A3B"/>
<path transform="translate(348,900)" d="m0 0h7l12 5 8 3 9 2 4 2 12 3 12 4 16 4 14 2 6 2v1l-12-1-28-6-28-8-32-12z" fill="#1E6E73"/>
<path transform="translate(184,776)" d="m0 0 4 3 2-2 3 4 4 1 7 9 7 6 3 3 7 8 18 18h-3l-11-10-8-7-10-9-17-17-6-5z" fill="#899A9D"/>
<path transform="translate(314,879)" d="m0 0 5 1 21 10 15 6-3 2 1 2h-7l-22-10-2-4-9-5z" fill="#0D2B2C"/>
<path transform="translate(121,661)" d="m0 0 4 4 9 19 6 12-1 4-2 1-10-19-4-4-3-8v-7z" fill="#0E2223"/>
<path transform="translate(471,641)" d="m0 0h2l-1 4-29 16-15 9-5 1v2l-7 4-2-3h4l2-3h2l1-3 8-4 8-5 14-8 12-7z" fill="#7A8284"/>
<path transform="translate(93,482)" d="m0 0h1v16l-1 1-1 25h2l1 4v43h-1l-2-12-1-14v-47l1-14z" fill="#16393A"/>
<path transform="translate(926,522)" d="m0 0h1v19l-5 38-10 40h-1l1-8 5-23 3-17 3-19 2-29z" fill="#747677"/>
<path transform="translate(615,456)" d="m0 0 9 3 13 8 8 4 19 11 20 12 8 5-2 1-24-13-13-8-16-9-19-11-3-1z" fill="#15C0CA"/>
<path transform="translate(811,790)" d="m0 0v3l-16 16-8 7-12 11-17 13-6 1 5-5 5-4 5-2 5-5 6-4 7-8 9-8 5-3 7-8z" fill="#87898A"/>
<path transform="translate(834,740)" d="m0 0v3l-10 13-11 12-7 8-9 10-8 8-8 7-11 10-5 4-2-1 5-5 8-7 5-4 26-26 7-8 10-11 9-12z" fill="#9A9A9A"/>
<path transform="translate(907,388)" d="m0 0h2l7 29 4 21 1 13h-1l-1 6h-1l-4-30-5-28z" fill="#949696"/>
<path transform="translate(158,732)" d="m0 0 5 1 8 12 7 9 9 12 4 5-2 1v-2h-3l-1-4-5-2-4-4-3-5-10-13-5-7z" fill="#062020"/>
<path transform="translate(410,503)" d="m0 0h1l2 16v25l-2 43h-1l-1-54z" fill="#9B9B9B"/>
<path transform="translate(864,281)" d="m0 0 4 4 14 24 8 16 11 23 1 5h-2v-3h-2l-3-9-8-16-9-17-5-9-3-3-3-5v-4h-2z" fill="#1B676B"/>
<path transform="translate(902,353)" d="m0 0 2 3 8 22v3h-3v7l-3 1-5-19 1-3 2 2-2-9z" fill="#051B1B"/>
<path transform="translate(172,755)" d="m0 0 4 2v3l4 2v2l5 2 3 7 7 8h-3l-2-2h-3l-6-5-10-13 2-3z" fill="#9CA3A4"/>
<path transform="translate(924,484)" d="m0 0h1v54l-2 20-3 19-2-2 1-15 3-16 1-20z" fill="#9B9B9B"/>
<path transform="translate(357,637)" d="m0 0h1l1 101 3 5 4 3-1 3h-6v-3l-2-4z" fill="#02565A"/>
<path transform="translate(177,256)" d="m0 0 2 1v3l-5 5-10 14-4 7-6 11h-2l-1 4-6 12-2-1 4-8 5-9 4-7 3-7 6-9z" fill="#0D383A"/>
<path transform="translate(912,381)" d="m0 0 2 3 8 28 6 28 2 13v7l-2-3-2-15-4-20-5-20v-4h-3l-2-6z" fill="#418487"/>
<path transform="translate(448,928)" d="m0 0h33l15 1 1 2-7 1v1h-13l-29-4z" fill="#19393A"/>
<path transform="translate(623,916)" d="m0 0h7l-4 2-19 5-30 6h-8l4-3 30-5 16-4z" fill="#216669"/>
<path transform="translate(910,644)" d="m0 0h2l-1 5-9 24-6 14-3-1 3-9 7-14 5-17z" fill="#244A4B"/>
<path transform="translate(642,898)" d="m0 0h5v2l-21 7-32 8-10 1 4-2h5l1-4 1 1 14-1v-2l14-3 13-4z" fill="#737677"/>
<path transform="translate(545,928)" d="m0 0h21l2 2-24 3h-14l-2-3 1-1z" fill="#1C3A3B"/>
<path transform="translate(847,764)" d="m0 0h2l-2 4-11 14-11 12-2-3 2-3h2l2-4 7-8 3-3 7-8z" fill="#183132"/>
<path transform="translate(223,817)" d="m0 0 4 2 8 7 5 2 7 6 5 6h-2l-1 2-14-12-12-11z" fill="#206366"/>
<path transform="translate(273,164)" d="m0 0 2 1-7 6-8 7-6 4-3 3h-2l-1 3-5 3-11 11v-3l8-8 6-7 19-14z" fill="#225153"/>
<path transform="translate(757,852)" d="m0 0 3 1-17 12-15 9-8 4v-3h3v-2h4l1-3 5-3h3v-2l5-3h3v-2h3v-2h3l2-4z" fill="#214242"/>
<path transform="translate(893,687)" d="m0 0h2l-2 6-13 26-5 8-2-2 1-5 5-8h2l2-5 9-19z" fill="#274A4B"/>
<path transform="translate(352,897)" d="m0 0h6l20 7-3 4-6-1-13-5-5-4z" fill="#030F0F"/>
<path transform="translate(504,623)" d="m0 0 2 1-7 6-20 11-4-1 4-4 20-11z" fill="#7A8283"/>
<path transform="translate(159,736)" d="m0 0 4 4 10 14v3l2 2-5 1-10-14 1-2-3-4z" fill="#A9AFB0"/>
<path transform="translate(409,629)" d="m0 0h1l1 38 3 5 1 5-5 4v-3l-3-2v-5l2-7-1-10z" fill="#98999A"/>
<path transform="translate(125,680)" d="m0 0 5 5 14 28-5-1-14-29z" fill="#94B7BA"/>
<path transform="translate(314,879)" d="m0 0 5 1 17 8-2 1 1 4-6-1-6-3-1-3-9-5z" fill="#092E2F"/>
<path transform="translate(840,248)" d="m0 0 5 5 12 16 7 10v2l-4-1-4-5-3-6-1-3h-2l-5-8-2-1-3-5-1-2z" fill="#264D4E"/>
<path transform="translate(103,613)" d="m0 0 4 5 3 2 2 10 1 6-1 8-2-3-7-25z" fill="#16484A"/>
<path transform="translate(923,566)" d="m0 0h1v9l1-1 4-3-1 12-3 16h-1l-1-18-2 2z" fill="#184547"/>
<path transform="translate(608,102)" d="m0 0 9 1 25 7 6 2-3 2-13-3-12-4-15-3z" fill="#225E61"/>
<path transform="translate(412,900)" d="m0 0h13l11 3 26 3 15 1v1h-19l-30-4-16-3z" fill="#9B9B9B"/>
<path transform="translate(701,540)" d="m0 0 2 1-13 8-23 13-12 7-2-1 10-7 12-6 13-8 10-6z" fill="#00F3FA"/>
<path transform="translate(386,109)" d="m0 0h3v2l-13 5-11 3-13 6h-7l3-2 20-8z" fill="#196569"/>
<path transform="translate(156,285)" d="m0 0 1 3-7 12-13 26-4 2 2-6 9-17z" fill="#196B6F"/>
<path transform="translate(792,821)" d="m0 0 2 1-9 9-3 5-15 12h-2l2-5 4-1 2-4 11-9z" fill="#112A2A"/>
<path transform="translate(761,815)" d="m0 0 2 1-9 8-14 10-15 10-9 5-2-1 19-12 15-11 6-4 1-2 5-3z" fill="#9A9A9A"/>
<path transform="translate(240,828)" d="m0 0 4 2 10 7 5 5 22 15-2 1-16-10-11-8-5-4-5-5z" fill="#747777"/>
<path transform="translate(398,917)" d="m0 0 7 1 17 3 6 2 14 2 6 2v1l-12-1-28-6-10-3z" fill="#2F7276"/>
<path transform="translate(94,452)" d="m0 0 2 2-1 16-1 12-1 2-1 14h-1v-20z" fill="#34676A"/>
<path transform="translate(907,388)" d="m0 0h2l7 29 1 8-3 2-5-28z" fill="#577A7C"/>
<path transform="translate(926,522)" d="m0 0h1v19l-2 17-2 4-1-4 2-20 1-15z" fill="#727474"/>
<path transform="translate(864,281)" d="m0 0 4 4 14 24 1 5-3-3-7-12-3-3-3-5v-4h-2z" fill="#22696C"/>
<path transform="translate(779,820)" d="m0 0 2 1-12 11-11 8-6 1 5-5 5-4 5-2 5-5 6-4z" fill="#7E8080"/>
<path transform="translate(878,695)" d="m0 0h2l-2 6-13 22-6 9-1-3 9-15 9-16z" fill="#848686"/>
<path transform="translate(574,95)" d="m0 0 11 1 24 5-1 2-9-1-22-4v-2z" fill="#246568"/>
<path transform="translate(117,370)" d="m0 0 1 2-4 9-3 12-2 5h-2l1-9 6-17z" fill="#0F6367"/>
<path transform="translate(926,555)" d="m0 0 2 1 1 15-2 3h-2v2l-2-1 2-16z" fill="#040F0F"/>
<path transform="translate(298,859)" d="m0 0 5 1 14 6 6 3-3 1-1 2-17-9z" fill="#AEB2B3"/>
<path transform="translate(754,840)" d="m0 0 2 1-9 7-15 10-5 3-2-1 10-7 6-4 5-5 5-2z" fill="#767777"/>
<path transform="translate(303,145)" d="m0 0 2 1-4 4h-2v2l-13 8h-5l4-4z" fill="#184D50"/>
<path transform="translate(918,578)" d="m0 0h1v7l-4 16-4 18-3 3 2-10 6-26 1-4z" fill="#9B9B9B"/>
<path transform="translate(643,573)" d="m0 0 3 1-36 21-2-1 7-5 11-6 9-5z" fill="#00F3FA"/>
<path transform="translate(865,738)" d="m0 0h2l-2 5-9 13-5 7-2-2 1-3h2v-3l2-1 1-3 4-1 1-5 1-3h2v-2h2z" fill="#2A4B4C"/>
<path transform="translate(197,234)" d="m0 0 1 3h-2l-2 4-8 8-1 3-7 4 2-4 8-11 5-3z" fill="#1B3F40"/>
<path transform="translate(902,353)" d="m0 0 2 3 8 22v3h-2l-8-21z" fill="#166B70"/>
<path transform="translate(551,93)" d="m0 0h14l9 2 3 1v2l-10-1-16-2z" fill="#155659"/>
<path transform="translate(522,91)" d="m0 0h25l10 1v1l-6 1h-10l-19-2z" fill="#3D6567"/>
<path transform="translate(675,524)" d="m0 0 2 1-3 5-2 2-7 4-3-1v-2l4-2 5-5z" fill="#728384"/>
<path transform="translate(923,600)" d="m0 0 1 3-5 21h-1v-12l3-11z" fill="#215557"/>
<path transform="translate(135,326)" d="m0 0h2l-2 5h-2l-1 5-2 3-3 10-2 1 1-9 6-13z" fill="#105A5E"/>
<path transform="translate(181,770)" d="m0 0 6 2 8 9h-3l-2-2h-3l-6-5z" fill="#A5AEAF"/>
<path transform="translate(434,664)" d="m0 0 2 1-10 6h-3v2l-7 4-2-3h4l2-3h2l1-3 3-2h5z" fill="#738486"/>
<path transform="translate(346,742)" d="m0 0 5 1 8 5 4 2h-7l-1 3-5-5z" fill="#767A7A"/>
<path transform="translate(908,380)" d="m0 0 4 1 1 11v3l-1 5-2-4z" fill="#031414"/>
<path transform="translate(448,928)" d="m0 0h19l7 1 2 3-15-1-13-2z" fill="#316568"/>
<path transform="translate(663,902)" d="m0 0h7l-2 2-22 8h-2v-2l7-1v-2z" fill="#2C5759"/>
<path transform="translate(189,782)" d="m0 0 7 6 14 14-1 3-9-9-7-8-4-4z" fill="#4C7B7D"/>
<path transform="translate(900,668)" d="m0 0 2 1-1 6-5 12-3-1 3-9z" fill="#1E3D3E"/>
<path transform="translate(847,764)" d="m0 0h2l-2 4-11 14-2-2 2-4 3-3 7-8z" fill="#264849"/>
<path transform="translate(587,924)" d="m0 0 6 1v1l-16 3h-8l4-3z" fill="#2B6366"/>
<path transform="translate(893,687)" d="m0 0h2l-2 6-8 16-2-2 9-19z" fill="#224445"/>
<path transform="translate(92,546)" d="m0 0 1 4h2v21h-1l-2-12z" fill="#3E686A"/>
<path transform="translate(922,580)" d="m0 0 2 1v19l-2 1v-13l-3 4 1-9h2z" fill="#051D1E"/>
<path transform="translate(496,914)" d="m0 0h19l-3 3-22-1v-1z" fill="#B4B8B9"/>
<path transform="translate(95,572)" d="m0 0 1 2h2l1 8v13h-1l-3-17z" fill="#346467"/>
<path transform="translate(246,184)" d="m0 0h3l-1 4-5 3-11 11v-3l8-8z" fill="#163E3F"/>
<path transform="translate(559,928)" d="m0 0h7l2 2-14 2h-7v-3z" fill="#2A6467"/>
<path transform="translate(811,790)" d="m0 0v3l-16 16-2-1 14-15z" fill="#797B7B"/>
<path transform="translate(517,614)" d="m0 0 2 1-6 4h-2l-2 5-5 3-2-1 2-2-4 1 3-3z" fill="#797E7F"/>
<path transform="translate(500,90)" d="m0 0h20l2 2-25 1v-2z" fill="#2C5052"/>
<path transform="translate(310,877)" d="m0 0 5 1-1 3 9 5v2l-7-2-5-3z" fill="#184244"/>
<path transform="translate(890,672)" d="m0 0 1 3-9 18h-1v-5l7-13z" fill="#858686"/>
<path transform="translate(931,543)" d="m0 0h1v12l-2 15h-1l-1-8z" fill="#366F72"/>
<path transform="translate(202,226)" d="m0 0h3l-1 4-10 8-3 3-2-1 8-8z" fill="#2B4F51"/>
<path transform="translate(724,860)" d="m0 0v3l-17 10h-2v-2l14-8z" fill="#737575"/>
<path transform="translate(794,820)" d="m0 0h4l-2 4-8 7-4 2 2-4 7-7z" fill="#2A4A4B"/>
<path transform="translate(141,713)" d="m0 0 4 1 5 7-1 3-5-3-3-6z" fill="#AEB2B3"/>
<path transform="translate(125,680)" d="m0 0 5 5 4 8-1 3h-2l-6-13z" fill="#6EA8AC"/>
<path transform="translate(593,910)" d="m0 0 7 1 8-1-1 2-18 4h-5l4-2h5z" fill="#767B7C"/>
<path transform="translate(175,755)" d="m0 0 5 5 10 9 1 3h-2v-2h-3l-1-4-5-2-4-4z" fill="#0B3435"/>
<path transform="translate(441,658)" d="m0 0h4v2l-7 4-8 3 2-4z" fill="#7F8A8C"/>
<path transform="translate(98,436)" d="m0 0h1v7l-2 14-2-3v-8l1-6h2z" fill="#1A5A5D"/>
<path transform="translate(152,732)" d="m0 0 4 1 3 2v5l3 5-4-2-6-10z" fill="#B8BBBB"/>
<path transform="translate(912,381)" d="m0 0 2 3 2 6v8h-2l-2-6z" fill="#125C60"/>
<path transform="translate(864,281)" d="m0 0 4 4 4 7v6l-3-4-2-3v-4h-2z" fill="#1F5254"/>
<path transform="translate(164,276)" d="m0 0v3l-4 7-3 4-1-2 3-7 2-4z" fill="#0F494B"/>
<path transform="translate(412,900)" d="m0 0h13l9 3v1l-12-1-10-2z" fill="#949696"/>
<path transform="translate(915,423)" d="m0 0 3 3 1 10-3 4-1-7z" fill="#808586"/>
<path transform="translate(904,365)" d="m0 0 2 3 1 11-2-2-2 1-2-11 3 2z" fill="#051919"/>
<path transform="translate(388,913)" d="m0 0 10 1 11 4-4 1-11-2v-2l-6-1z" fill="#074D50"/>
<path transform="translate(348,900)" d="m0 0h7l12 5v1l-9-1-10-4z" fill="#176A6E"/>
<path transform="translate(338,513)" d="m0 0h7l-1 4-2 2-7-3v-2z" fill="#787D7D"/>
<path transform="translate(343,125)" d="m0 0h2l-2 4-11 4-4-1z" fill="#1B6064"/>
<path transform="translate(608,102)" d="m0 0 9 1 5 2 1 2-11-2-7-1z" fill="#15595C"/>
<path transform="translate(757,852)" d="m0 0 3 1-11 8h-2v-3h3l2-4z" fill="#244748"/>
<path transform="translate(774,839)" d="m0 0 3 1-10 8h-2l2-5 4-1v-2z" fill="#214445"/>
<path transform="translate(883,313)" d="m0 0 3 4 6 12h-3l-7-15z" fill="#05656A"/>
<path transform="translate(386,109)" d="m0 0h3v2l-13 5h-2v-3z" fill="#146468"/>
<path transform="translate(303,145)" d="m0 0 2 1-4 4h-2v2l-4 3h-2l2-5z" fill="#144C4F"/>
<path transform="translate(431,924)" d="m0 0h7l10 3v1l-12-1-5-2z" fill="#266E71"/>
<path transform="translate(778,816)" d="m0 0h1v5l-5 4-4-2 4-3h2v-2h2z" fill="#ADB1B2"/>
<path transform="translate(925,439)" d="m0 0 2 3 1 5v8l-5-4h3l-1-2z" fill="#054245"/>
<path transform="translate(326,133)" d="m0 0h2l-1 3-11 5-2-2z" fill="#2A5C5E"/>
<path transform="translate(878,695)" d="m0 0h2l-2 6-4 7-3 1 2-5z" fill="#8B8B8B"/>
<path transform="translate(177,256)" d="m0 0 2 1v3l-8 7-2-1z" fill="#1B5052"/>
<path transform="translate(188,244)" d="m0 0v3l-3 5-7 4 2-4 4-5z" fill="#204748"/>
<path transform="translate(103,613)" d="m0 0 4 5 1 8-2 1-3-11z" fill="#2B6164"/>
<path transform="translate(926,555)" d="m0 0 2 1 1 15-2-3-2-9z" fill="#062323"/>
<path transform="translate(699,507)" d="m0 0h6l2 4-1 1h-5z" fill="#ABB2B3"/>
<path transform="translate(239,190)" d="m0 0 2 1-9 9-3 4-2-1 4-6z" fill="#2C5253"/>
<path transform="translate(595,99)" d="m0 0 10 1 4 2-1 1-9-1-4-1z" fill="#245F62"/>
<path transform="translate(159,736)" d="m0 0 4 4 2 5-4-1-3-4zm1 9h2l-1 2z" fill="#A4A8A9"/>
<path transform="translate(878,714)" d="m0 0 1 3-3 8-2 2-1-5z" fill="#163232"/>
<path transform="translate(451,652)" d="m0 0h2l-1 4-5 3-4-2z" fill="#7B8385"/>
<path transform="translate(99,596)" d="m0 0 2 1 2 6v10l-2-4z" fill="#35696B"/>
<path transform="translate(623,916)" d="m0 0h7l-4 2-6 2h-7l3-2z" fill="#1B666A"/>
<path transform="translate(395,896)" d="m0 0 15 1 2 1v2l-8-1-9-2z" fill="#8A8E8E"/>
<path transform="translate(840,248)" d="m0 0 5 5 2 3-1 3-3-2-3-5-1-2z" fill="#22494A"/>
<path transform="translate(645,113)" d="m0 0 8 1 4 2v2l-5-1-7-3z" fill="#0E5B5F"/>
<path transform="translate(466,93)" d="m0 0h8v2l-6 1h-11v-1l8-1z" fill="#034B4E"/>
<path transform="translate(642,898)" d="m0 0h5v2l-11 3 1-3z" fill="#757979"/>
<path transform="translate(715,878)" d="m0 0h5l-4 3-5 3-4-2z" fill="#2C4849"/>
<path transform="translate(728,870)" d="m0 0 4 2-12 6v-3h3v-2h4z" fill="#274849"/>
<path transform="translate(169,752)" d="m0 0 4 2v3l2 2-5 1-1-2z" fill="#B0B5B6"/>
<path transform="translate(523,612)" d="m0 0 2 1-9 6-5 2v-2l7-4 1-2z" fill="#7D8789"/>
<path transform="translate(566,593)" d="m0 0 2 1-11 7-2-1 1-3z" fill="#07393A"/>
<path transform="translate(904,375)" d="m0 0 2 2 2 11-2 1-2-7z" fill="#06393B"/>
<path transform="translate(856,273)" d="m0 0 6 3 2 5-4-1-4-5z" fill="#124547"/>
</svg>
