<?xml version="1.0" encoding="UTF-8"?>
<svg version="1.1" viewBox="0 0 1101 1600" width="128" height="186" xmlns="http://www.w3.org/2000/svg">
<path transform="translate(536,42)" d="m0 0 4 1 5 10 11 27 12 30 16 41 11 29 12 29 8 19 3 2 3-10 5-12 5-17 10-25 7-15 10-20 14-24 13-21 10-15 6-10 7-10 5 1 5 12 14 40 21 63 12 34 8 25 3 12 1 2 3-1 14-21 11-13 8-10 11-13 9-11 8-8 1-2h2l2-4 31-31 5-2 3 4 6 17 7 24 15 56 16 58 8 28 4 16 2 2 5-5 13-17 11-18 11-14 5 1 4 15 4 12 4 38 4 17 4 39 4 16 3 29 3 24 3 10 3 31 2 15 4 10 5 21 4 10 1 8v88l-2 22-4 11-1 10-2 39-6 13-4 11-3 2-18 1-4 17-6 15-6 19-1 4 17 1 16 3 9 5 10 9 7 11 6 13 1 4v19l-3 10-3 7-5 18-7 15-6 11-13 21-14 18-7 8-8 8-16 11-10 6-12 2h-23l-10-5-11-9-7-7-9-11-4-2-5 5-9 11-13 16-33 33-14 10-16 11-21 13-24 13-19 9-19 8-29 12-29 11-16 5h-2v2l4 2 8 6 10 13 11 17 12 20 18 33 8 20 9 30 2 14 1 18 9 3 8 3 6 7 1 6v40l-4 13-8 16-11 12-8 6-13 7-15 4-3 3-5-1h-3-3l-6-3h-7l-5-1h-13l-15-4-17-6 3 12 3 19 7 12 8 10 3 6 1 23 2 11 5 8 1 3v7l-11 16-2 2-12 1h-233l-2-2-3-12v-9l3-10 8-11 9-9 7-5 18 1 4-2 6-9 4-9 5-6 7-6 2-5 1-7v-21l-3-7-4-5-10-6-8-4h-6l-7 7-8 7-9 10-7-1-17-17-18-22v-2l-4 2-4 6-5-1-8-7-7-8-33-36-14-19-8-10-1-2v-9l1-7-3-3-11-2-10-5-15-6-20-9-13-10-6-9-12-23-10-21-74-148-11-23-6-13v-8l6 1 9 8 18 12 16 12 16 11 17 13 12 8 12 9 22 15 13 10 14 9 13 10 15 10 19 14 11 7 10 10 9 17 1 3 1 14 3 9 3 3 2 12 1 13 6 2h11l6 3 6 5 6 2 4-4 6-11 5-7 6-11 9-17 7-19 3-9 3-13 8-16v-3l-23-10-20-8-19-9-24-14-14-9-12-9-10-9-12-11-11-11-7-8-8-11-4-8-3-23-5-21-3-32-6-25-4-24-5-19-5-25-5-23-3-14-9-26-10-23-13-29-9-23-8-22-9-31-6-27-4-26-2-10-2-29v-22l2-43-5-52-1-8v-56l4-43 10-49 9-31 9-27 4-6 4 2 7 8 10 14 11 13 11 14 9 11 13 16 11 14 5 5h3l7-31 8-26 11-26 14-30 12-21 11-18 11-17 24-34 4-5 3 1 4 10 6 24 9 42 11 48 5 18 2 4 4-4 9-29 8-23 10-24 14-29 12-22 12-19 10-14 13-18 9-11 10-11 7-8 9-10 16-16zm-15 1400-4 3-1 7 1 12 1 2h8l4-4 2-7v-8l-4-5z" fill="#070B14"/>
<path transform="translate(528,72)" d="m0 0 2 4 7 20 7 18 12 36 11 30 15 36 10 27 12 36 11 31 9 24 8 14 8 9 2-1v-2h-2l3-22v-65l-1-9-4-1 2-11 9-23 6-23 11-26 18-40 10-23h2l2-7 5-9h2l5 17 5 19 12 39 6 20 21 65 24 72 5 8v3l4 1 2-8 1-19-1-11 3-12 2-3h2l1-4v-20l4-12 7-12 13-18 10-13 11-12 6-7 5-5 7-8 11-13 2 1 5 24 9 28 9 35 12 46 9 37 11 52 2 10 4 11 2-16 4-9 10-17 10-16 9-17 2-1 3 12 3 23 4 34 8 47 8 51 1 20-2 2h-13l-28-2-30-4-75-6-42-4-100-7-78-4-30-1-79-1h-370l-2-3 1-15v-78l-1-4v-11l4-17 6-28 7-38 1-6h2l6 9 3 4v2l4 2 6 9 7 10 12 17 3 4v3h2v3l4 2 1 4 3 1v3l4 2 11 14 12 14 24 26 4 1v-30l-1-8v-53l3-20 8-21 10-18 9-20 12-23 12-20 8-13 1-2 3 1 5 25 15 66 14 55v11l5 17 5 23 4 11 3 9 4 1 3-12 12-66 5-26 4-16 4-24 2-16 7-21 12-26 10-19 10-18 12-20 15-22h2l1-4h2l1-4h2l2-5 10-11 11-14 5-11z" fill="#464654"/>
<path transform="translate(317,509)" d="m0 0 39 1h14l2 3 20 1 141 1 58 1 32 1 16 1 15 2 62 3 35 2 99 11 15 2h24l15 2 34 3 53 6 20 3 3 1 1 5 1 24v32l-1 30-2 27-4 35-3 41-4 1-17-3-74-9-35-4-39-4-34-4-12-2-7-8-8-7-9-4-13-8-8-1-23 4-9 3h-7l-1-1-8 1-9 3-12 5-14 2-8 2h-9l-2-7h-92l-36-2-6-1-46-2-36-1h-62l-42 1-23 1-41 1-4 1h-16l-10-5-21-6-9-3h-10l-9 4-10 6h-2l-2-4-3-25-6-36-7-40-3-23-1-13v-17l3-7 9-18 3-1 92-1 52-1 1-4z" fill="#0596AF"/>
<path transform="translate(309,722)" d="m0 0h210l46 2 34 3 3 2-1 4-3 3h-2v-2l-13 4-7 4-17 6-8 4-17 6-16 6-16 7-13 4-12 5-11 7-3 1 3 9 8 16 6 10 4 8 1 3h2l7 15 4 3v10l-4 2-2 4 1 9 1 6 3 1 3 6 13 4 24 6 10 1 1 1 16 2 3 3 3 1 11 1h58l23-4 8-2 9-1 5-2 8-1 7-3 12-4 9-4 11-5 6-4h2v-2l8-7 6-5 1-2h2l2-5 3-3 4-10 2-8v-23l-1-8v-13l7-2 26-2 9-4 2-3h2v-2h2v-2l3-3 5-9-1-7-2-5v-6h22l36 2 7 2 2 3 21 2 31 2 8 2 2 2 31 3 1 1v6l-1 2-1 13-5 12-6 12-7 7-14 3-21 3-6 4-5 6-6 12h-2l-1 4-10 15-8 11-2 11 8-5 7-8 19-19 8-7 10-8 6-4h2v-2l6-1h27l14 3 13 2v2l5 1 12 7 7 4 4 5 1 8-2 21-5 21-8 22-3 8h-2l-1 5-6 10-2 5h-2l-2 4-10 14-11 12-13 9-13 8-13 4h-8l-13-5-11-8-8-8v-2h-2l-7-11-6-11-4-18-4-7-7-1v6l2 3 1 21-10 12-10 14-9 13-4 5-8 7-7 8-7 7-7 8-11 10-4 1-9-3-14-5-18-5-10-3-9-3-24-7-36-11-17-5-6-2-27-8-26-10-11-4v-2h-6l-12-5-16-6-15-5-21-8-16-8-17-8-15-8-16-5-10-1-9 3-7 3h-2v2l-6 3-14 10-10 8-11 8-11 9h-2v2l-16 8-10 4-18 5-8 2-24 1-15 4-13 1-10 4h-4l-2-4-1-11-3-10-5-41-4-16-5-31-4-11-1-12h-2l-2-10-6-22v-3h-2l-2-10-6-19v-3h-2l-4-10-1-8h-2l-1-2v-6l9 1 10 2 10 4 1 1-1 13-2 12-2 4v10l3 16 9 21 6 10 9 10 8 7 14 9 7 4 16 5 1 1 11 2 4 1h18l21-3 9-2 11-6 7-6 4-8v-27l-1-11v-9l11 3v2h6l2-21v-41l-7-4-7-3-27-14-19-10-22-11-26-12v-4z" fill="#B9B182"/>
<path transform="translate(306,511)" d="m0 0h23l2 2h8l6-1 5 1 1-1 18-1v3l13 1 58 1 13 1 11 2 2 2 23 4 18 5 3 3 1 4-7-1v3h-5l2 6 6 9v12l3 4v2h2l3 5 7 4 11 3 5 2 12 1 4 5-4 4-9 2h-38l-22 1-11 2v4l4 4 10 3 4 2 14 1 3 2 16 3 8 4-1 4-12 3-6 1-32 1h-28l-5 2 3 14 2 15v13l2 2h3l-1 7 3 1 2 2-3 3-14 2-28 2h-46l-35-1-50-3h-13l-27-2-15-4-10-3h-18l-17 1h-11v10l-4 1-10-60-7-40-3-23-1-13v-17l3-7 9-18 3-1 92-1 52-1z" fill="#0CADAE"/>
<path transform="translate(448,955)" d="m0 0 12 2 11 5 13 5 10 5 33 14 33 12 26 10 18 7 21 7 20 8 8 4 3 6 2 8-4 12-3 7-2 6-3 10h-2l-2 5-7 12 1 4 12-6 19-13 17-12 13-11 12-11 3-3h7l20 6 10 5 5 8v2l3 1v3l-16 8-26 12-30 13-27 11-22 8-24 6-17 4h-4v-2l-21 5-5 2-13 2-20 1h-24l-42-3-27-3-14-3-26-7-26-9-23-11-16-9-20-13-11-8-13-11-13-13-10-15-2-8 5-6 6-3 15-3 31-4 24-6 16-6 33-18 10-7 16-9 17-8z" fill="#454553"/>
<path transform="translate(309,722)" d="m0 0h210l46 2 34 3 3 2-1 4-3 3h-2v-2l-13 4-7 4-17 6-8 4-17 6-16 6-16 7-13 4-12 5-11 7-3 1 3 9 8 16 6 10 4 8 1 3h2l7 15 4 3v10l-4 2-2 4 1 9 1 6 3 1 3 6 13 4 24 6 10 1 1 1 16 2 5 5-1 4h2l3 4v2l2 1 4 5 14 10 9 7 8 7 13 9 4 3-3 1 9 4 5 7h-7l-6-2-3-2-1 3-4 1 5 3 1 3-3 3-6-1h-8l-5 2-4 1 6 4-1 2-12-3v-2h-6l-12-5-16-6-15-5-21-8-16-8-17-8-15-8-16-5-10-1-9 3-7 3h-2v2l-6 3-14 10-10 8-11 8-11 9h-2v2l-16 8-10 4-18 5-8 2-24 1-15 4-13 1-10 4h-4l-2-4-1-11-3-10-5-41-4-16-5-31-4-11-1-12h-2l-2-10-6-22v-3h-2l-2-10-6-19v-3h-2l-4-10-1-8h-2l-1-2v-6l9 1 10 2 10 4 1 1-1 13-2 12-2 4v10l3 16 9 21 6 10 9 10 8 7 14 9 7 4 16 5 1 1 11 2 4 1h18l21-3 9-2 11-6 7-6 4-8v-27l-1-11v-9l11 3v2h6l2-21v-41l-7-4-7-3-27-14-19-10-22-11-26-12v-4z" fill="#B9B1A2"/>
<path transform="translate(622,1150)" d="m0 0h5l6 6v2l4 2 11 12 11 17 12 22 9 20 10 25 8 26 6 22 2 6-1 7-6 7-4 3h-3l2 3 22 5 6 5 1 6v22l-2 11-7 15-7 11-19 19-3 2h-13l-5-2v-4l-6 5h-5l-8-4-11-3-2-4-6 1-2 2h-6v-2l-3-1v-7l8-10 2-7h-9l-1 3 1 5-3 4-2 7h-2v2l-9-1-6-3-4-4-2-9v-28l2-38 2-3 3-1 18-1 3-3 8-1h2l2-1 1-6v-8l-6-16-3-5-5-18-1-10-3-9-4-6-8-27-6-18-3-7-2-8h-2l-3-12-3-5 1-7 11-3z" fill="#464654"/>
<path transform="translate(720,705)" d="m0 0h40l8 6 13 11 14 11 9 10 4 7 1 4v7l-4 5-9 6-52 10-60 12-63 14-30 7-39 9-36 8-3 1h-7l-8-7-10-14-6-9-2-7 1-5 5-4 12-6 9-3 7-3 29-10 10-4 16-6 14-5 8-4 10-3 10-4 51-17 17-5 9-3 12-2 13-1 1-3z" fill="#92663D"/>
<path transform="translate(951,834)" d="m0 0h27l14 3 13 2v2l5 1 12 7 7 4 4 5 1 8-2 21-5 21-8 22-3 8h-2l-1 5-6 10-2 5h-2l-2 4-10 14-11 12-13 9-13 8-13 4h-8l-13-5-11-8-8-8v-2h-2l-7-11-6-11-4-18-4-7-7-1h-2v-7l6-21 8-16 2-6 8-5 7-8 19-19 8-7 10-8 6-4h2v-2z" fill="#BFB197"/>
<path transform="translate(819,748)" d="m0 0h22l36 2 7 2 2 3 21 2 31 2 8 2 2 2 31 3 1 1v6l-1 2-1 13-5 12-6 12-7 7-14 3-21 3-6 4-5 6-6 12h-2l-1 4-10 15-8 11-1 3-1 12-8 16-6 18-1 5 1 13 2 3 1 21-10 12-10 14-9 13-4 5-8 7-6 7-2-3-1-6 3-10 8-24 4-17 5-16 2-20 1-22 1-5-3-6-5-16-2-13-7-24 1-4 3 3v-12l-4-2-1-3 1-5-5-8 2-6-2-7-4 1-1-5-6-2-8-1-1-2h2l3-6-2-2 3-1v-2h2v-2l3-3 5-9-1-7-2-5z" fill="#B59D6D"/>
<path transform="translate(111,1072)" d="m0 0 4 2 10 7 2 1v2l4 1 13 10 7 6 8 6 6 4 11 7 15 11v2l4 1 7 5v2l4 1 40 28 10 8 17 12 2 3 7 4 8 9 5 16 4 23 2 28 2 3 7-7 4-3 8 1 1 4h2v2l5 2 16 16 7 10v6l-5 2h-15l-11-7-4-1 1 5 10 3 6 4-2 6-12 9-7 6-6 3h-4l-5-5-11-12-9-11-2-2 1-5 11-6 7-8 2-4-14 7-8 3h-8l-5-3v-2l-4-1-22-12-7-2v-2l-10-2-5-2-8-11-3-9h-2l-4-8-12-21-8-16-8-15-20-40-2-5h-2l-8-16-5-9-3-7-5-10-9-17v-4h-2z" fill="#ABA89B"/>
<path transform="translate(749,799)" d="m0 0h6l1 8v34l-2 9-8 10-15 16-11 8-17 5-18 3-9 4-11 3h-12l-8 1h-53l-16 1-3-1-5 1-3-3-16-3-10-3v-2l-5 1-21-5-11-4-4-3-1-6 3-15 7-10 10-3h8l8-2h6l1 1v12l4 12 7 9 6 3 2 3h14l13-3 10-6 2-7 3-7 3-4 1-4h-13l-9-4-5-3-1-9 15-5 29-6 24-4 11-3 14-2 2-1 15-1 26-7 30-7z" fill="#B3B7B5"/>
<path transform="translate(195,698)" d="m0 0 9 1 13 6 12 4 8 4 12 4 14 7 27 12 19 9 40 20 27 14 8 6 4 4 1 4v20l-1 16-5 1-33-10-18-6-38-13-36-12-35-13-33-11-8-14-4-10-5-12v-10l20-20z" fill="#92663D"/>
<path transform="translate(620,1321)" d="m0 0 16 2 44 3 9 1 8 4 19 4 6 5 1 6v22l-2 11-7 15-7 11-19 19-3 2h-13l-5-2v-4l-6 5h-5l-8-4-11-3-2-4-6 1-2 2h-6v-2l-3-1v-7l8-10 2-7h-9l-1 3 1 5-3 4-2 7h-2v2l-9-1-6-3-4-4-2-9v-28l2-38 2-3 3-1 22-1z" fill="#BFB197"/>
<path transform="translate(236,792)" d="m0 0 12 1h7l10 4 5 4 4 4-1 5-9 7-5 6v10l2 5v4h2l4 7 7 6h6l7-5 3-4 4-36h8l25 8 4 1v2l9 1 5 2v2l12 2 6 2v2h2v2l4 1 3 3 2 31v19l-6 5-12 4-7 3-7 1h-40l-12-3-18-9v-2l-5-2-10-9-10-10-3-6v-2h-2l-7-19-5-15v-15l2-10 3-6z" fill="#B3B7B5"/>
<path transform="translate(720,705)" d="m0 0h40l8 6 13 11 14 11 9 10 3 4v8l-8-6-27-9-5-2-11-1h-18l-7 1-20 3-11 4-4 2-10 1-17 6-7 2-18 5-9 3-17 4-34 11-8 3-22 7-9 4-51 18-2 1v3l-3-1-7-11-2-7 1-5 5-4 12-6 9-3 7-3 29-10 10-4 16-6 14-5 8-4 10-3 10-4 51-17 17-5 9-3 12-2 13-1 1-3z" fill="#B3875F"/>
<path transform="translate(201,779)" d="m0 0 9 1 10 2 10 4 1 1-1 13-2 12-2 4v10l3 16 9 21 6 10 9 10 8 7 14 9 7 4 16 5 1 1 11 2 4 1h18l21-3 9-2 11-6 7-6 4-8v-27l-1-11v-9l11 3v2h6l-5 5-2 13v12l-2 9-3 4 1 5-3 3-5 1-8 11-3 2h-3l-1 3-7 4-4 7-12 6-4 1-20 2 11-1 11 1-3 2-16 1h-10l-13 1-10 1-3 1-4 6-3 7-1 4v9l5 2-1 8-4 4h6l-5 4h6l-4 3 7 3 2 2v5l14-3 21-1 1-4 3-2 4-3 8-1 1-2h-2v-2l17-7-4-2 10-4 2 1 3-1 2 1v3l7-1v-2l9 1v2l-10 8h-2v2l-16 8-10 4-18 5-8 2-24 1-15 4-13 1-10 4h-4l-2-4-1-11-3-10-5-41-4-16-5-31-4-11-1-12h-2l-2-10-6-22v-3h-2l-2-10-6-19v-3h-2l-4-10-1-8h-2l-1-2z" fill="#BFB097"/>
<path transform="translate(309,722)" d="m0 0h210l46 2 34 3 3 2-1 4-3 3h-2v-2l-13 4-7 4-17 6-8 4-17 6-16 6-16 7-13 4-12 5-11 7-3 1 3 9 8 16 6 10 4 8 1 3h2l3 6v2l-4-2-3-2-3-5-4-5-5-8-7-9v-3l-3-1-2-5-2-8 1-6 5-5 3-1 4-4 8-4 7-3h3l-1-3 1-2-3-1v-6l-12-4-7-5v-2l-6-1-7-1-2-5-7 2-1-3-11 2h-16l-6 1h-9l-4 1h-9l-3-2-1-1-12 2-5 8 8 7 12 8v2l3-1 3 3v2l4 2 7 6v2h2l1 8-1 18-1 5h-1l-1-5-1-25-7-4-7-3-27-14-19-10-22-11-26-12v-4z" fill="#BEB198"/>
<path transform="translate(1e3 554)" d="m0 0h5l2 4 3 1 2 5 1 6v90l-5 46-2 29-3 7-5 1-5-2-21-4-10-3-9-3 3-1-1-4 4-1 5-1v-2h-12l-2-2-1-6h2l-1-4 7-34 3-16 3-21 6-35 3-21 3-18 3-2 8-2z" fill="#0CADAE"/>
<path transform="translate(495,883)" d="m0 0 3 3 2 4 13 4 24 6 10 1 1 1 16 2 5 5-1 4h2l3 4v2l2 1 4 5 14 10 9 7 8 7 13 9 4 3-3 1 9 4 5 7h-7l-6-2-3-2-1 3-4 1 5 3 1 3-3 3-6-1h-8l-5 2-4 1 6 4-1 2-12-3v-2h-6l-12-5-16-6-15-5-21-8-16-8-17-8-15-8-16-5-5-1 2-9 6-4h7l-3-2 7-2 2 2 6-4 9-15 3-10z" fill="#BFB197"/>
<path transform="translate(151,1102)" d="m0 0 4 2 10 7 11 7 15 11v2l4 1 7 5v2l4 1 40 28 10 8 17 12 2 3 7 4 8 9 5 16 4 23 2 28 2 3 7-7 4-3 8 1 1 4h2v2l5 2 16 16 7 10v6l-5 2h-15l-11-7-4-1 1 5 10 3 6 4-2 6-12 9-7 6-6 3h-4l-5-5-11-12-9-11-2-2 1-5 11-6 7-8 3-10-1-5-5-3-12-11-12-12-10-13-5-5-4-5v-2l-3-1-4-6-4-4v-2h-2l-4-5v-2h-2l-5-6v-2h-2l-8-11-13-15-11-14-13-16-14-17-6-8-8-8z" fill="#464654"/>
<path transform="translate(716,557)" d="m0 0 3 2v8l-3 6v7l-5 10 3 2v2h2l2 10v28l-1 2v7l1 3-2 9-1 3-4 20-1 15 5-1 6-3h22l16 6 7 4 9 6 1 3-9-3-13-8-8-1-23 4-9 3h-7l-1-1-8 1-9 3-12 5-14 2-8 2h-9l-2-7h-92l-20-1v-1h79l24-1 1-16 3-13 8-18 14-24 10-15 7-11 10-15 15-23 7-10z" fill="#057FA7"/>
<path transform="translate(446,1339)" d="m0 0h23l11 1v2l46 1 52 3 4 1-1 13-2 15-2 3-3 1h-82l-2-1-3 9-2 2-4 1h-31l-7-2-3-2-16-4-34-1-3-31-1-8 40 1 8-2h6l1 9v16l1 11 38 1 1-2v-30l-1-3-14-1-18-1z" fill="#0596AF"/>
<path transform="translate(983,275)" d="m0 0 5 1 4 15 4 12 4 38 4 17 4 39 4 16 3 29 3 24 3 10 3 31 2 15 4 10 5 21 4 10 1 8v88l-2 22-4 11-1 10-2 39-6 13-4 11-3 2-18 1-1 2-4-2v-3h23l2-13 4-43 3-30 1-46v-27l-1-38-2-17-4-16-7-36-2-13-4-19-4-31-2-14-2-9-7-43-3-10-2-16-3-16-3-14-2-10-1-3-4-1-1-3-4 1-2 3-3-1 10-15z" fill="#434351"/>
<path transform="translate(195,698)" d="m0 0 9 1 13 6 12 4 8 4 12 4 14 7 27 12 19 9 40 20 27 14 8 6 2 2v3l-11-3-14-3-14-1-16-4-8-3-14-5-5-2h-2v-2l-5-1-23-10-10-4-17-7-10-3-17-6-16-5h-8l-10 3-3 3h-2v7l-4-4-4-11v-10l20-20z" fill="#B4885F"/>
<path transform="translate(971,296)" d="m0 0 4 1v3l5 1 2 5 3 18 3 12 2 17 2 10 4 18 6 39 1 5 5 33 2 13 5 26 3 19 7 33 2 7 1 12 1 38v40l-1 33-6 62-2 21h-1l-1-8 2-21v-17l-2-10v-29l1-17 2-5 2-11 1-2 1-16v-43l-1-8h-7l-1-4-1-19-4-8-8-25h-2l-5 2-46-3-49-6-28-2v-1h13l39 3 30 4 28 2h13l1-4-1-17-5-31-6-37v-6l2 4 5 24 1 4v7l4 2-1 5h2l2-6-1-2 1-2-2-1v-2h2l-4-12-4-27-2-16-3-19-1-13-4-22-2-8-4-9-1-6-1-1-1-20h-5l-6 4 2-5 4-1 2-4z" fill="#1A161F"/>
<path transform="translate(396,1503)" d="m0 0 38 1 13 1 1 1 2 13 4 3 3 17 1 8 2 4h-77l-8-1 1-4-1-4 4-13 7-13 9-12z" fill="#303648"/>
<path transform="translate(494,1291)" d="m0 0h9l12 5 34 16 16 6 13 4-1 3-13 4h-2l-1 3-6 1-20 1h-71v2h-23l4-4 4 1v-2l-2-1 11-11 9-7 10-8h2v-2l8-6z" fill="#464654"/>
<path transform="translate(533,988)" d="m0 0 9 2 30 10 23 8 12 5 18 7 29 9 20 6 23 7 11 4 8-1v-2l3-1v3l1-2 6 1 23 3 12 6 4 8 2-1v2l4-2 4 4-8 5-8 4h-2l-1-3-5-5-3-6-12-5-17-5h-9l-2 4-15 14-13 10-19 13-15 10-10 5-2-3 2-5 8-14h2l2-10 2-7 5-12 2-7-3-10-1-3-6-2-11-5-16-6-21-7-39-15-27-10z" fill="#1D1F2B"/>
<path transform="translate(495,1505)" d="m0 0h27l10 3 5 4 5 10 3 7 4 20-2 2-4 1h-43l-32-1 1-15 5-13 7-11 5-5z" fill="#454553"/>
<path transform="translate(448,1270)" d="m0 0h13l11 8 2 3-1 11-2 7-8 8-10 8-11 9-11 7-8 2-17 1h-13l-2-4 2-5v-11l9-7 16-11 11-9h2l2-4 11-10z" fill="#464654"/>
<path transform="translate(743,721)" d="m0 0h11l-5 7-9 3-23 4-21 5-15 4-16 5-29 10-42 15-42 14-28 10-26 9-4-1-8-3 3 6-1 2-6-8-2-7 1-5 5-4 12-6 9-3 3 1-6 4-3 5 13-1 4 2 24-5 5-3 4-5 11-2 8-1 13-4 17-6 11-5 10-6 10-4 16-6 10-3 11-2 16-5 11-3 12-2 17-4z" fill="#B69E6E"/>
<path transform="translate(314,1264)" d="m0 0 8 1 1 4h2v2l5 2 16 16 7 10v6l-5 2h-15l-11-7-4-1 1 5 10 3 6 4-2 6-12 9-7 6-6 3h-4l-5-5-11-12-9-11-2-2 1-5 11-6 7-8 6-9 3-5z" fill="#BFB096"/>
<path transform="translate(533,843)" d="m0 0h6l1 1v12l3 11v3l1 3h2l4 8 2 1v3l7 1h7l3 1 3 3 10 1h8l1 2h8v-2h3v3l11-1 6-2 33 2v2l7 1 5-1 4 1 2-1h6l-4 2-7 2h-12l-8 1h-53l-16 1-3-1-5 1-3-3-16-3-10-3v-2l-5 1-21-5-11-4-4-3-1-6 3-15 7-10 10-3h8z" fill="#9B9F9F"/>
<path transform="translate(440,1161)" d="m0 0h19l25 2 31 1 19-2-1 3-8 7-10 11-7 8-4 5-9 9-12-4-9-5-19-10-14-8-5-4v-7z" fill="#454553"/>
<path transform="translate(543,1240)" d="m0 0 8 1 23 8 24 11 6 7 1 2-1 18-3 7-3 1-25-10-45-20-4-4 2-4 5-4 8-11z" fill="#464654"/>
<path transform="translate(430,500)" d="m0 0h67l43 5 3 1 1 3-4 2-20 3-41 1h-87l-20-1-2-3h-23l-21-1 3-2-9-1v-1l10-1 43-1 30-2 9-1z" fill="#1A161F"/>
<path transform="translate(111,1072)" d="m0 0 4 2 10 7 2 1v2l4 1 13 10 7 6 14 16 11 14 2 4-6-5-5-1-8 2-3 3 1 6 2 2 2 5 3 3v3l4 3 1 3 5 5 12 17 3 5 3 14-2 3v3l-6 1-6-9-2-4-3-3-12-23-11-22-2-5h-2l-8-16-5-9-3-7-5-10-9-17v-4h-2z" fill="#9B9F9F"/>
<path transform="translate(544,1164)" d="m0 0 6 1 10 10 8 6 6 5 1 3-9 11-11 11-7 8-7 7-4 1-6-3v-2l-6-1-13-8-1-4 5-10 11-13 9-12z" fill="#454553"/>
<path transform="translate(203,833)" d="m0 0 6 4 7 20 4 23 3 13 2 16 5 16 4 17 4 23 5 31 3 16-2 2 1 1h2l2 10 4 11 3 9 8 14 2 4h2v3l4 2 5 6 15 15 4 5v3h2l-1 2-10-8-17-16-10-10-7-8-8-11-4-8-3-23-5-21-3-32-6-25-4-24-5-19-5-25-5-23z" fill="#444553"/>
<path transform="translate(402,1164)" d="m0 0 1 4v13l3-1 1 6-5 18-4 8-2 8h4l-2 12-3 7-5 25-1 9-2 3v5l-3 5-4 1-2-3v-4l-9-3-2-2 1-8 3-6v-3l2-2-1-2-1-3-7 6-3 7h-2l1-7 9-14 6-11 9-17 7-19 3-9 3-13z" fill="#1A1821"/>
<path transform="translate(428,1180)" d="m0 0 10 3 21 11 17 11 1 7-4 10-5 8-9-1-20-9-20-8-6-3 3-9 10-18z" fill="#454553"/>
<path transform="translate(235,500)" d="m0 0h31l28 3 16 2 6 1-4 2-4 1-2 5-9 1-43 1h-78v-1l13-1-3-1-20-1-3-1v-2l-2-1 6-3 52-3z" fill="#1C1821"/>
<path transform="translate(819,748)" d="m0 0h22l36 2 7 2 2 3 8 1 3 2-1 4-14-1-10-2-15 1-5 3 2 5-12 7-1 8-2 3-2 7-7 4-1 2-7 2-1-5-6-2-8-1-1-2h2l3-6-2-2 3-1v-2h2v-2l3-3 5-9-1-7-2-5z" fill="#C09F73"/>
<path transform="translate(971,296)" d="m0 0 4 1v3l5 1 2 5 3 18 3 12 2 17 2 10 4 18 6 39 1 5 5 33 2 13 5 26 3 19 4 19-1 4-9-27-4-16-3-11-3-20v-3l-3-1 1-2-2-1v-2h2l-4-12-4-27-2-16-3-19-1-13-4-22-2-8-4-9-1-6-1-1-1-20h-5l-6 4 2-5 4-1 2-4z" fill="#1E1F2B"/>
<path transform="translate(276,1252)" d="m0 0 7 6 12 11 5 3-1 8-8 6-15 6h-8l-5-3v-2l-4-1-22-12 3-1v-3l9-3-2-7v-7l20 1 7 1z" fill="#9B9FA0"/>
<path transform="translate(777,1081)" d="m0 0 3 1-19 11-27 14-26 11-29 12-29 11-9 3-4-1 1-3 4-1v-2h2v-2l7-5 3-1 4-4 5-1v-2l22-9 10-5 10-4 27-11 16-2 10-4 11-2z" fill="#1F212D"/>
<path transform="translate(405,1239)" d="m0 0 5 2 15 9 11 6 5 4-2 4-10 11-14 14-14 11h-4l-2-6 3-26 6-27z" fill="#454553"/>
<path transform="translate(871,162)" d="m0 0 2 1 2 9v15l-5 2-1 8 1 4-3 3-5 2-8 7-10 6-6 3-11 8-6 3h-2v2h-2l-1 3h-2v2h-3l-1 2-5 5 1-6 12-17 13-17 11-12 6-7 5-5 7-8z" fill="#74747E"/>
<path transform="translate(236,792)" d="m0 0 12 1h7l10 4 5 4 4 4-1 5-9 7-5 6-1 8h-1l-1-6h-2l-5 9v8l-3 6-1 4-5 1-9-25-1-4v-15l2-10 3-6z" fill="#9B9FA0"/>
<path transform="translate(183,1144)" d="m0 0 5 2 11 13 8 10 11 13 6 8v2h2l5 6v2h2l4 5v2h2l2 5 3 1 4 6 4 4 5 6v2l3 1 6 8v3l-6-2-12-8-12-6-12-9v-2l-4-2-9-11-15-30-3-10-5-8-4-4z" fill="#B1B5B3"/>
<path transform="translate(350,1313)" d="m0 0 7 1 5 5 7 9v2l3 1v3l-3 2h-3v2l-10 5-9 6-8 4-9 6-7-1-4-6-5-5-6-7v-2l13-5 12-7 9-7 4-3h2v-2z" fill="#BFB197"/>
<path transform="translate(526,1276)" d="m0 0h9l13 6 11 4 10 5 9 4 3 2v2h2v2l3 1 1 7 1 3-6 1-1 3-7-1-19-7-28-13-14-6-1-3 5-5 7-3z" fill="#464654"/>
<path transform="translate(373,1335)" d="m0 0h2v4l4 2 5 8 2 7v13h-2v2l-6 3-17 4-6 3h-2v2h-6l-8-7-3-5-5-5v-2l27-14 10-7z" fill="#BF9E72"/>
<path transform="translate(577,1199)" d="m0 0h2l5 6 2 4v2h2l6 12 3 13-1 3v8l-2 3-5-1-21-9-17-8-1-4 7-8 9-10 7-7z" fill="#464654"/>
<path transform="translate(528,72)" d="m0 0 3 6v10l-3 10-3 16h-9v2l-5 4-1 3-5 5-9 11-6 4-6 5-7 10-7 7-3 8h-2l-2 7-4 4-7 15h-2l-1 4-3 5-3 7-8 15-2 3 1-7 9-20 11-21 10-18 12-20 15-22h2l1-4h2l1-4h2l2-5 10-11 11-14 5-11z" fill="#71727B"/>
<path transform="translate(434,1341)" d="m0 0h6l1 9v16l1 14-1 3h-8l-4-2-18-1-7-3-7-6-1-8 3-6 5-4 11-2 13-2 3-4 1-3z" fill="#0597AF"/>
<path transform="translate(440,1343)" d="m0 0 2 2v3l3-1h35l1-2 1 1v30l-2 3-36-1-2-1-2-11z" fill="#8F653F"/>
<path transform="translate(386,1342)" d="m0 0 40 1h6l-2 5-5 3-18 2-7 4-3 6 1 8 9 7 4 1 18 1 4 2 8 1 1-6 38 1-1 5 2 7h-31l-7-2-3-2-16-4-34-1-3-31z" fill="#067FA7"/>
<path transform="translate(533,1526)" d="m0 0 4 1v2l3-1 2-2h2l4 16 1 8-6 2h-43l-32-1 1-6 21-2 13-4 14-5z" fill="#303648"/>
<path transform="translate(294,810)" d="m0 0h8l25 8 4 1v2l9 1 5 2v2l12 2 6 2v2h2v2l4 1 3 3 2 31v19l-6 5-12 4h-3l3-5 7-8 4-6 2-7v-17l1-4v-11l-1-1h-12l-13-2-7-3-9-2-22-4-9-4-1-3h-3z" fill="#999D9D"/>
<path transform="translate(703,95)" d="m0 0h2l2 11v9l-5 2-1 3 4 11v37l-2-4-3-9-3-5v-2h-10l-7 11-3 7-6 9-4 8-5 9-3 3 1-7 11-25 13-29 10-23h2l2-7z" fill="#71727B"/>
<path transform="translate(615,1469)" d="m0 0 5 5 6 8 1 3 1 23 2 11 3 5v15l-2-1-1-10h-2l-7-27-3-18-3 1-18 1h-73l-1-1 1-7h94l-3-6z" fill="#444452"/>
<path transform="translate(743,721)" d="m0 0h11l-5 7-9 3-23 4-21 5-15 4-16 5-29 10-7 1-1-2 10-3 4-5 7-5 17-6 6-1v-2l19-6 16-3 17-4z" fill="#C09F72"/>
<path transform="translate(330,505)" d="m0 0h33l2 2 6 1 4-1h10l4-1 33-1h11l4 1 19 1 17 3 2 1v2l3-1 4 2-3 1h-87l-20-1-2-3h-23l-21-1 3-2-9-1v-1z" fill="#1D202C"/>
<path transform="translate(498,1223)" d="m0 0h7l12 5 4 3 8 3-1 5-8 11-3 3-5-1 1 3-6-1-17-7-7-3-3-4 9-8 7-8z" fill="#1D1F2B"/>
<path transform="translate(582,1156)" d="m0 0h2v7l3 5 2 12h2l2 3 3 10 4 10 7 24 4 13 2 2 4 8 2 15 6 20 4 9 4 10v8l-3 7 1 2-9-3-4-29-5-22-5-24-10-33-4-10-5-11-7-17-1-5v-10z" fill="#1D1E2A"/>
<path transform="translate(410,1215)" d="m0 0 9 2 22 11 10 7 3 5-2 1v2l-5 1-1 3h-2l-1 5-9-3-22-13-5-7 1-11z" fill="#464654"/>
<path transform="translate(676,1037)" d="m0 0 7 1 14 4 11 4 8-1v-2l3-1v3l1-2 6 1 23 3 12 6 4 8 2-1v2l4-2 4 4-8 5-8 4h-2l-1-3-5-5-3-6-12-5-17-5h-9l-2 4-13 12h-3l2-4 1-8-3-7-5-4-11-4z" fill="#1D1F2B"/>
<path transform="translate(175,1193)" d="m0 0 3 3 8 13 6 3 4 6 8 5v2h2l8 13 5 15 4 6 6 4 1 3 2 1 5 4 2 2-9-1v-2l-10-2-5-2-8-11-3-9h-2l-4-8-12-21-11-22z" fill="#B0B4B2"/>
<path transform="translate(878,903)" d="m0 0 4 1v2l9-3 1 1-1 9-2 1-1 3 2 1-1 9 2 1 3 5 2 7v5h-3v5l-3 2-2-2-4 1-6-12-7-1h-2v-7l6-21z" fill="#BAB1A2"/>
<path transform="translate(748,1097)" d="m0 0 4 1-25 12-19 8-29 12-29 11-10 3v-3l7-4h3v-2l14-8 9-6 8-3 17-5 18-7 3 1 1-2 15-3z" fill="#464654"/>
<path transform="translate(436,1474)" d="m0 0h81l1 5-2 3-22 1h-54l-9-2z" fill="#454553"/>
<path transform="translate(253,1037)" d="m0 0 2 2 6 12 11 12 4 3v2l4 2 3 5 7 4v2l6 2 6 5v2h2v2l5 2 5 4 3 1v2l3 1 5 5 9 6 1 4 4 5 1 3-6-2-17-10-12-8-7-5v-3h-2l-3-6-5-5-6-5-3-5-5-5-6-5v-3h-2l-6-9-7-13z" fill="#20222E"/>
<path transform="translate(578,1322)" d="m0 0 12 2 2 1-1 5-2 3-6 3-1 1-8-1h-74l-2 2-13 1-1 1 3 2h-7v-2h-32l18 1v1l-24 1-1-3 3-2-5-1 2-2 23 1v-2l10-1h61l20-1 6-1 3-3 13-4z" fill="#1A161F"/>
<path transform="translate(474,1248)" d="m0 0 8 2 10 6 9 3 2 2v4l-5 5h-2l-1 4-4 4-9-3-19-12v-7l9-7z" fill="#1D1F2B"/>
<path transform="translate(203,833)" d="m0 0 6 4 7 20 4 23 3 13 2 16 5 16 4 17 4 23v3h-2l5 41v5l-2-1-1-3-4-41-1-1-1-9-1-1-3-18-2-8-2-15-4-12-1-14h-2l-4-18h-2l-5-21z" fill="#383C4C"/>
<path transform="translate(276,1164)" d="m0 0 10 6 10 9 4 5 8 15 1 3 1 14 3 9 3 3 2 12v11l-7-3-9-29-4-21-8-16-8-9-9-7z" fill="#444553"/>
<path transform="translate(975,286)" d="m0 0 2 1v2l3-2 4 17 2 10 7 31 2 9 4 33 8 47 4 30 5 28 2 15v8l-2-4-2-15-5-25-3-20-4-28-3-15-6-38-3-10-2-16-3-16-3-14-2-10-1-3-4-1-1-3-4 1-2 3-3-1 8-12h2z" fill="#454553"/>
<path transform="translate(1036,847)" d="m0 0 4 1 8 17 1 4v19l-3 10-3 7-2 8-2 1-6 16-11 21-4 6-1-2 7-14 4-13 5-15 5-27 1-13v-16z" fill="#454554"/>
<path transform="translate(201,779)" d="m0 0 9 1 10 2 10 4 1 1-1 13-2 12-2 4-1 10h-1l-1-5v-8l-6 1-3-7-4-9-3-4 2 9-2-2-3-12v-2h-2l-1-2z" fill="#BDB097"/>
<path transform="translate(327,1258)" d="m0 0 9 1 2 1v2l3 1 6 8 11 13 4 5 5 5 10 16 3 5 1 10-3 7-4-4-4-7v-2h-2l-8-16-10-18 1-2 3 2-7-5-4-6-12-12-4-2z" fill="#C4B59C"/>
<path transform="translate(389,1241)" d="m0 0 4 1v7l-3 15-1 9-2 3v5l-3 5-4 1-2-3v-4l-9-3-2-2 1-8 5-8 6-8h2v-2l4-4z" fill="#454553"/>
<path transform="translate(309,722)" d="m0 0h210l46 2 34 3 3 3-2 2h-17l-17-2-16-1-5-2-5-1-26-2h-137l-68-1z" fill="#7B6456"/>
<path transform="translate(76,1023)" d="m0 0 6 1 9 8 18 12 15 11 1 5-5-2-3 1v2l-6-2-4-3v-2l-4-2-16-10-4-3 1 3h2l6 9 11 11-1 2-8-7-2 4-1-5h-3l-12-25z" fill="#444A58"/>
<path transform="translate(806,645)" d="m0 0h11l45 6 42 6 41 5 13 2-1 5-13-1-103-15-32-6z" fill="#067FA7"/>
<path transform="translate(732,1328)" d="m0 0 5 4 2 8v40l-4 13-8 16-11 12-8 6-13 7-4-1 6-4h3l2-4 5-4 5-5 5-4 5-5 4-7 5-11 2-19v-23z" fill="#3E4859"/>
<path transform="translate(943,898)" d="m0 0h5l3 3-1 5h-2v3h-2l-2 5-6 11-7 11-3 7-5 1-2-2v-9l5-13 4-9 3-7 6-5z" fill="#0C1018"/>
<path transform="translate(428,925)" d="m0 0h9l1 2h-2v2l-8 3-8 8-9 5-3 3 6-2-5 5-11 9-9 6-2-1 7-6h-3v-2l-3-1 1-4 3-1 2-4 9-10 18-9z" fill="#BFB198"/>
<path transform="translate(497,876)" d="m0 0 5 5 11 4 11 3 13 2h2v2l10 2 16 3 3 3 6-1 7 1 13-1h52l13-1h7l13-4 3 1-7 3-15 4-37 1h-50l-7 1-1 2-1-1-9-1v-1l5-1-5-4h-6l-1-1-9-1-9-3-11-4-19-5-3-4z" fill="#454553"/>
<path transform="translate(206,791)" d="m0 0 4 5 4 8 3 9h6l1 13h2l3 16 8 19-1 4-2-1v11l1 12-2-4-2-7v-4h-2l-2-10-6-22v-3h-2l-2-10-6-19v-3h-2l-3-11z" fill="#FAF8F6"/>
<path transform="translate(463,723)" d="m0 0h51l26 2 9 2 1 1 23 2 20 2v1l-7 1-5 3-7 2h-5v-2h-8l-9-2-13-2-11-6-15-1-76-1v-1z" fill="#B69D6E"/>
<path transform="translate(499,860)" d="m0 0 1 4-2 9v7l2 3 23 6 7 3 9 3 9 1 8 2 6 4v1h-14l-1-1-14-2-25-6-9-4-3-6-3-3-2-7v-6l3-5z" fill="#0D1018"/>
<path transform="translate(402,1164)" d="m0 0 1 4v14l2 1-6 12-4 13-6 16-6 8-4 4-2 4h-2v2l-4 1-1-3 6-10 8-15 7-19 3-9 3-13z" fill="#444553"/>
<path transform="translate(268,811)" d="m0 0 1 2-8 7-2 3-1 8h-1l-1-6h-2l-5 9v8l-3 6-1 4-5 1-5-14v-10l3-8 8-3 11-2 4-4z" fill="#ABA89C"/>
<path transform="translate(566,1346)" d="m0 0h12l4 1-1 13-2 15-2 3-3 1h-82l-2-2 43-1 24-2 14-2 2-9v-8l-4-7z" fill="#067FA7"/>
<path transform="translate(1025,642)" d="m0 0h1l1 7-1 10-1 50-5 53h-1l-1-8 2-21v-17l-2-10v-29l1-17 2-5 2-11z" fill="#1A1720"/>
<path transform="translate(195,698)" d="m0 0 9 1 13 6 12 4 8 4 12 4 14 7 9 4 5 3-2 1-13-4-10-4-17-6-9-5-13-4-5-2-11-1-9 5-10 7-5 5 1-5 19-19z" fill="#BB9A6F"/>
<path transform="translate(979,280)" d="m0 0 2 1 3 8 8 36 3 19 2 16 3 23 5 31 7 47 6 36 2 17v5l-2-4-5-36-4-20-3-25-6-34-5-35-1-11-2-9-7-31-4-17-2-9-4 2v-4z" fill="#303547"/>
<path transform="translate(572,1158)" d="m0 0h3l1 15 2 8-1 6-2 2-5-6-9-6-10-10-7-3 4-3z" fill="#1D1F2B"/>
<path transform="translate(593,1328)" d="m0 0h1v62l4 2 3 2 8 1 3 3 4-7 3 1v3l-1 5-2 2-2 7h-2v2l-9-1-6-3-4-4-2-9v-28z" fill="#B19169"/>
<path transform="translate(557,1285)" d="m0 0 5 1 18 7 14 5 13 4 2 4-5 5h-5l1 5-5 3h-9l-9-2 4-2 1-2 5-2-2-5v-4l-2-1v-2h-2v-2l-4-2-11-4-9-5z" fill="#1D1F2B"/>
<path transform="translate(399,1510)" d="m0 0h8l10 5 1 1v5l-6 5-6 3-4 1-6 2-6-4 1-10 3-5h2v-2z" fill="#464654"/>
<path transform="translate(324,698)" d="m0 0h116l55 2 18 1-3 2-46-2-36-1h-62l-42 1-23 1-41 1-4 1h-16v-1l18-2 11-2h30z" fill="#067FA7"/>
<path transform="translate(383,840)" d="m0 0 11 3v2h6l-5 5-2 13v12l-2 9-3 4 1 5-3 3h-6l4-9v-27l-1-11z" fill="#B6A78E"/>
<path transform="translate(667,1419)" d="m0 0 1 2-1 3 17 2v1l-16 1-3-2v-3l-2 1 2-4zm-6 5 2 1-2 4h15l-2 3-10 1 6 5-3 3-4-3-7-1-8-1h-13l-15-4-2-1v-3l37-1 5 1v-2l-2-1z" fill="#2F3445"/>
<path transform="translate(507,778)" d="m0 0 3 1-6 4-3 5v3h2l-1 9-3 3-11 1-2-1 3 6-1 2-6-8-2-7 1-5 5-4 12-6z" fill="#BC9B6F"/>
<path transform="translate(841,587)" d="m0 0 8 1 28 4 48 8 38 6 4 1v3l-14-1-40-7-25-4-27-4-13-3-7-1z" fill="#057FA7"/>
<path transform="translate(446,1339)" d="m0 0h23l11 1v2h8l1 41-4 6h-5v-5l-2-1 3-7v-30l-1-3-14-1-18-1z" fill="#14ACAF"/>
<path transform="translate(350,1313)" d="m0 0 7 1 5 5 7 9v2l3 1-1 3-2-2-8 6-6-1v-3h-2v-2l-3-1-2-4-2-1-1-7-2-1 5-2v-2z" fill="#C09F72"/>
<path transform="translate(212,872)" d="m0 0 2 1 3 14v4h2l2 14 4 12 3 21 3 12 1 8 1 1 1 9 1 1 2 23v13l-2-2-2-9-3-32-6-25-4-24-5-19-3-17z" fill="#171A24"/>
<path transform="translate(245,1271)" d="m0 0h13l13 4 1 4v11l4 2h-8l-5-3v-2l-4-1-20-11 4-3z" fill="#6E6F79"/>
<path transform="translate(383,989)" d="m0 0 2 1-10 6-17 9-23 7-13 3-37 5-9 1 3-2 5-2 13-2h6l6-2 9-2 1-1 7-1 8-3 24-7 18-6z" fill="#1E202C"/>
<path transform="translate(641,1284)" d="m0 0 5 4 7 12 3 3 4 5 2 3 5 3 6 4v2l10 1 6 3 2 4h-2v-2l-9-1-13-3-10-2-7-14-4-5-3-9h-2l-1-6z" fill="#303648"/>
<path transform="translate(597,830)" d="m0 0 6 1 5-1 1 4-6 3h-3v2l-2 1 2 3 1 5 1 2h-7l-6-3v-3h-7l-2 2-2-1-1-9 15-5z" fill="#9C9F9E"/>
<path transform="translate(203,833)" d="m0 0 6 4 7 20 4 23 3 13v6h-1l-2-10h-2l-1 2-4-18h-2l-5-21z" fill="#414554"/>
<path transform="translate(648,1396)" d="m0 0 3 1v19l4 5v2l-10-3-8-2-2-4h-6l4-6 8-8z" fill="#AF855D"/>
<path transform="translate(452,1265)" d="m0 0 11 4 21 11 3 3-2 5-11 11-8 7h-3l8-8 2-11v-6l-5-5-7-5h-13l-11 10-2-1 10-10z" fill="#1D1E29"/>
<path transform="translate(371,839)" d="m0 0h1l2 30v19l-6 5-12 4h-3l3-5 7-8 4-6 2-7v-17l1-4v-8z" fill="#989B9C"/>
<path transform="translate(111,1072)" d="m0 0 4 2 10 7 2 1v2l4 1 13 10 7 6 1 3-14-3-5-5-5 2-3-1-2-7v-2l-4-1-3-5v-4h-2z" fill="#AEAA9E"/>
<path transform="translate(608,768)" d="m0 0m-3 1h3v2l-24 8-8 3-22 7-9 4-51 18-2 1v3l-3-1-2-6-1-5 9 3 6-1 34-12 29-10z" fill="#B4885F"/>
<path transform="translate(317,509)" d="m0 0 39 1h14l2 3 20 1 141 1v1h-151l-13-1-2-2 1-1-17 1-5 1-5-1-2 1h-8l-2-2-22-1v-1z" fill="#057FA7"/>
<path transform="translate(516,1268)" d="m0 0 10 3 19 8 7 3-4 1-13-6h-9l-5 4-5 2-3 4-1 2-8-5-1-3 7-8z" fill="#1D1E29"/>
<path transform="translate(434,963)" d="m0 0 3 1-4 3-7 3-9 6-15 9-9 6-12 6-5 3-10 4-2-1 5-5 15-8 11-6 10-7 16-9 6-3z" fill="#303648"/>
<path transform="translate(246,1028)" d="m0 0 3 3 14 27 3 3v2h2v3l4 2 5 6 15 15 4 5v3h2l-1 2-10-8-17-16-3-3-3-7-8-11-4-10v-3h-2l-4-11z" fill="#373B4C"/>
<path transform="translate(831,840)" d="m0 0 6 4 2 2 2-1 2 2h-2v8l-1 7 3 12 3 4 2 6 3 5-1 6-3 6-2-4-5-16-2-13-7-24z" fill="#C0A073"/>
<path transform="translate(728,1106)" d="m0 0h3v2l-23 10-20 8-7 1-26 10-2-1 7-4h3v-2l16-7 10-4 8-3h7v-2l16-5z" fill="#34394A"/>
<path transform="translate(675,1404)" d="m0 0h3l3 9 5 5 2 6-3 2h-13l-5-2v-7l6-10z" fill="#BD9A6D"/>
<path transform="translate(371,511)" d="m0 0h55l1 1h12l11 1 26 1v1h-84l-20-1z" fill="#3E404F"/>
<path transform="translate(580,1195)" d="m0 0 4 2 8 16 6 15 4 16v10l-6-1-4-3 3-3v-10l1-2-4-15-4-6v-3h-2l-2-5-5-5v-2l-3 1 2-4z" fill="#1D1E2A"/>
<path transform="translate(498,1223)" d="m0 0h7l12 5 4 3 8 3-1 5-8 11-3 3-5-1 1 3-6-1v-2l3-3h4l2-3 1-14-10-6h-5l-9 4-3 2 2-4z" fill="#1A161F"/>
<path transform="translate(582,1156)" d="m0 0h2v7l3 5 2 12h2l2 3 3 10 4 10 6 20-1 6-2-3-7-22-5-11-9-21-1-5v-10z" fill="#1D1D28"/>
<path transform="translate(676,1037)" d="m0 0 7 1 14 4 14 5-2 5-7 7-7 6h-3l2-4 1-8-3-7-5-4-11-4z" fill="#1A161F"/>
<path transform="translate(442,1377)" d="m0 0 38 1-1 5-2 2h-30l-5-2z" fill="#060B13"/>
<path transform="translate(592,1257)" d="m0 0 5 1 10 4 2 7 1 13v19l-12-5 1-2h2l1-5 1-4 1-16-3-5-3-2v-2l-6-2z" fill="#1D1E2A"/>
<path transform="translate(306,511)" d="m0 0h23l2 2h8l6-1 5 1 1-1 18-1v3l13 1v1h-65l-14-1 3-1z" fill="#0597AF"/>
<path transform="translate(391,1254)" d="m0 0h1l-1 17-2 11-3 9-2 4-7 1v-2l-3 1-4-6-1-10v-3l9 4 2 6h4l1-4 1-2 1-5 1-2z" fill="#1E202C"/>
<path transform="translate(474,1333)" d="m0 0h33v1h-24l-1 6 5 1v1h-7v-2h-32l18 1v1l-24 1-1-3 3-2-5-1 2-2 23 1v-2z" fill="#1D1F2B"/>
<path transform="translate(393,1312)" d="m0 0 2 1-1 1v11l-2 6 1 2h16l20-1-3 2-10 1h-38l1-7h3l3-1v-9z" fill="#1D1E2A"/>
<path transform="translate(802,788)" d="m0 0 2 1-5 5-4 1h-3l-5 1-8 1-5 1-2 5-1 3h-5v-13l7-2 26-2z" fill="#B89B72"/>
<path transform="translate(533,843)" d="m0 0h6l-2 1v8l-5 1-4-1h-12l-5 3-7 1v3l-2 1-2 4v-6l7-10 10-3h8z" fill="#72737C"/>
<path transform="translate(405,1180)" d="m0 0 2 2-1 8-4 14-4 8-2 8h4l-2 12-3-4-5 6-1-3 3-9v-5l2-1 1-6-1-3 4-12 5-9v-2-3z" fill="#1A1620"/>
<path transform="translate(731,1394)" d="m0 0 2 3-6 12-11 12-8 6-13 7-4-1 6-4h3l2-4 5-4 5-5 5-4 5-5 6-8z" fill="#3F4150"/>
<path transform="translate(306,723)" d="m0 0h71l55 1v1l-5 1h-55l-66-2z" fill="#A8A394"/>
<path transform="translate(170,1121)" d="m0 0 5 2 4 2v2l6 2v2l3-2h3v2l4 1 7 5v2l4 1 10 7 1 3-3 1-6-3v-2h-3v-2l-4-1-9-6-11-4-11-11z" fill="#70717B"/>
<path transform="translate(327,1258)" d="m0 0 9 1 2 1v2l3 1 6 8 11 13 3 9v2h-2l-4-4h-2l-3-6 1-2 3 2-7-5-4-6-12-12-4-2z" fill="#A17B59"/>
<path transform="translate(497,876)" d="m0 0 5 5 11 4 11 3 13 2h2v2l10 2 16 3 4 4v2l-3 1-1 2-1-1-9-1v-1l5-1-5-4h-6l-1-1-9-1-9-3-11-4-19-5-3-4z" fill="#404250"/>
<path transform="translate(997,497)" d="m0 0h1l1 11v12l-4 1-45-3-49-6-28-2v-1h13l39 3 30 4 28 2h13l1-4z" fill="#1C1B26"/>
<path transform="translate(441,1380)" d="m0 0 2 3 4 1h33l1 6h-31l-7-2-3-2-5-1v-2h6z" fill="#0580A7"/>
<path transform="translate(231,787)" d="m0 0 12 3 13 2 16 7 4 5-2 4v-3l-4-2-5-5-10-4h-13l-6-1-4 9-2 21h-1l-1-8h-2l3-16 1-7z" fill="#454551"/>
<path transform="translate(961,767)" d="m0 0h19v6l-1 2-1 13-5 12-4 9h-2l3-9 3-7v-17l-3-3-9-4z" fill="#BD9D71"/>
<path transform="translate(398,1500)" d="m0 0m-2 1 2 1-6 7-9 14-5 11-2 8 2 5-2 1v-2h-2l-1-4v-9l3-10 8-11 9-9z" fill="#12161F"/>
<path transform="translate(819,748)" d="m0 0h22l14 1-10 5-12 1-9 1-3-2-1 3z" fill="#B2996B"/>
<path transform="translate(294,725)" d="m0 0h6v2h-3v2l10 2 9 3 9 6 11 6 22 11 9 5-4 1-23-12-35-17-11-5z" fill="#E6E7E7"/>
<path transform="translate(441,1341)" d="m0 0 2 1h31l6 1v4l-38 1z" fill="#080D15"/>
<path transform="translate(578,1322)" d="m0 0 8 1v2l2 1-2 4-16 3-2 1h-33v-1l20-1 6-1 3-3 13-4z" fill="#1D1F2B"/>
<path transform="translate(448,953)" d="m0 0 4 1h4l18 6 17 9 6 3-3 1-17-8-13-5-8-3h-5-4l-16 7-12 6-2-1 12-8 12-5z" fill="#1D1F2B"/>
<path transform="translate(538,859)" d="m0 0 3 1 2 7v3l1 3h2l4 8 2 1v3l7 1h7l3 1 3 4h-10l-7-1-4-1-2-5-4-1v-2h-2l-4-10-1-2z" fill="#ABA99D"/>
<path transform="translate(1028,606)" d="m0 0h1v40l-1 33-2 19h-1v-39l1-17 1-35z" fill="#1E202C"/>
<path transform="translate(519,726)" d="m0 0h9l11 6 13 2 9 2 8 1-1 3-12 1-9-3-14-4-14-7z" fill="#B9B182"/>
<path transform="translate(743,721)" d="m0 0h11l-5 7-9 3-17 2 4-3h3v-2l4-2v-2l-4-2z" fill="#B69E6E"/>
<path transform="translate(100,1039)" d="m0 0 5 2 19 14 1 5-5-2-3 1v2l-6-2-4-4v-4l-2-1 1-4h2l-8-5z" fill="#2B3141"/>
<path transform="translate(437,1226)" d="m0 0 5 1 15 9 3 4-1 4-10 9-5 1-3-2 2-1 1-4 3-3 5-1 1-3-3-5-13-8z" fill="#1C1C27"/>
<path transform="translate(476,1205)" d="m0 0 8 4 1 3-4 8-8 8-2 4-9-1v-1l6-1 6-12 2-7z" fill="#1D1F2B"/>
<path transform="translate(577,836)" d="m0 0h5v2l2 1h10l6-1-2 2 2 3 1 5 1 2h-7l-6-3v-3h-7l-2 2-2-1z" fill="#BCAF97"/>
<path transform="translate(565,897)" d="m0 0h48l40 1v1l-8 1h-53l-16 1-3-1-5 1z" fill="#767780"/>
<path transform="translate(619,1390)" d="m0 0h9l-1 7-8 10v8l-4-2 1-3-3 2-4-1h3v-2h2l1-7 3-4-1-6h2z" fill="#534C51"/>
<path transform="translate(457,184)" d="m0 0 1 3-6 12h-2l-1 4-3 5-3 7-8 15-2 3 1-7 9-20 10-19z" fill="#6A6B75"/>
<path transform="translate(608,768)" d="m0 0m-3 1h3v2l-24 8-8 3-22 7-9 4-9 3-3-1 2-2 29-10z" fill="#B68960"/>
<path transform="translate(463,723)" d="m0 0h51l14 2v1l-91-1v-1z" fill="#B69669"/>
<path transform="translate(168,292)" d="m0 0 3 1 4 6 3 4v2l4 2 4 5v5l-4-2v-2l-5-2-5-4-3-2-2-7z" fill="#71727B"/>
<path transform="translate(230,950)" d="m0 0h1l1 8 1 1 1 9 1 1 2 23v13l-2-2-2-9-3-32-1-10z" fill="#1A1C26"/>
<path transform="translate(218,889)" d="m0 0h2l3 10 4 19 2 13 5 27v5l-2-4-1-1-3-18-2-8-2-15-4-12z" fill="#7B8087"/>
<path transform="translate(917,760)" d="m0 0h27l4 3 9 2v2h-2l-1 2-9-3-21-2-7-2z" fill="#BFA176"/>
<path transform="translate(651,901)" d="m0 0h12l-2 2-30 1v2l-11 1h-9l-11-1v-2h-5v-1z" fill="#1A1721"/>
<path transform="translate(646,1397)" d="m0 0h3v6l-8 6-2 3-1 5h6v2l-7-1-2-4h-6l4-6 8-8z" fill="#976B41"/>
<path transform="translate(536,42)" d="m0 0 4 1 5 10 5 14-2 3-10-18-4-4v-2l-2-1z" fill="#11151F"/>
<path transform="translate(868,972)" d="m0 0v3l-14 19-9 13-4 5-5 2 14-21 6-8 4-4 4-6z" fill="#B7AB7D"/>
<path transform="translate(423,1156)" d="m0 0h3l-1 9-5 7-3 8-2 1-1-5 2-12 5-7z" fill="#414250"/>
<path transform="translate(402,1164)" d="m0 0 1 4v14l2 1-2 4-3 7-1-2h-2v-6l-1-1v-8z" fill="#21232F"/>
<path transform="translate(974,344)" d="m0 0h4v12l3 14v17l1 17h-1l-4-28-2-21z" fill="#1C1D28"/>
<path transform="translate(294,810)" d="m0 0h8l25 8 4 2h-9l-11-3-12-2-4 2-2 3z" fill="#5C606C"/>
<path transform="translate(334,1364)" d="m0 0 1 2 4 2 4 4 1 3 3 2 12-1v3l-6 2v2h-6l-8-7-3-5-3-3z" fill="#CDC2B0"/>
<path transform="translate(1024,851)" d="m0 0 5 2 4 5 1 8-2 21-4 16-1-3 2-11v-30l-5-6z" fill="#89735C"/>
<path transform="translate(985,423)" d="m0 0 2 4 5 24 2 15 3 21v10h-1l-5-31-6-37z" fill="#1D1E2A"/>
<path transform="translate(330,505)" d="m0 0h33l2 2 5 1v1h-11l-8-1h-22l-9-1v-1z" fill="#2F2E3A"/>
<path transform="translate(378,1531)" d="m0 0 6 2-1 8 2 2-1 5-9 2 1-4-1-4z" fill="#454553"/>
<path transform="translate(735,1332)" d="m0 0h2l2 8v40l-3 11-2 1 2-11v-37z" fill="#131720"/>
<path transform="translate(395,1227)" d="m0 0 2 1-1 7-2 12h-1v-5l-7 1-2 5-3 1v2h-2l-2 4v-3l1-2h2v-2l3-2 6-12z" fill="#1D1F2A"/>
<path transform="translate(580,1195)" d="m0 0 4 2 8 16 4 9v2l-3-1-4-8-1-4h-2l-2-5-5-5v-2l-3 1 2-4z" fill="#1C1D28"/>
<path transform="translate(214,1168)" d="m0 0 6 1 5 5 2 4h3v5h2l1 3-7-1-1-3-5-4-6-7z" fill="#767780"/>
<path transform="translate(499,1259)" d="m0 0 4 2v4l-5 5h-2l-1 4-4 4-7-2 5-5 6-7h2l1-2h2z" fill="#1A161F"/>
<path transform="translate(1008,458)" d="m0 0 2 1 5 27 3 21v8l-2-4-2-15-5-25-1-4z" fill="#464654"/>
<path transform="translate(394,1209)" d="m0 0 2 2-1 7h-2l-1 7-4 10-2 2h-2l-1-3-5 5 1-5 5-4 5-9z" fill="#1E202C"/>
<path transform="translate(962,897)" d="m0 0h2l1 2 4 1-5 4h-2v2l2 1-4 1-7 1-3-2 4-2v-2h-2l1-3v2h2l1-3z" fill="#B9B1A2"/>
<path transform="translate(433,512)" d="m0 0 17 1 26 1v1h-84v-1l37-1z" fill="#3D3F4F"/>
<path transform="translate(735,1368)" d="m0 0h1l1 5v8l-2 12-3 3-1-1-4 7-1-2 5-11 2-19z" fill="#3C3F4E"/>
<path transform="translate(236,968)" d="m0 0 3 1 4 27 1 7-3 3v-10h-2l-1-2-2-19z" fill="#424352"/>
<path transform="translate(802,788)" d="m0 0 2 1-5 5-4 1h-3l-5 1-4-1v-3h-10v-1l26-2z" fill="#A58A62"/>
<path transform="translate(573,1161)" d="m0 0 2 2 2 14 1 8-3 4-5-6-4-4 2-1 4 1 1-13-1-4z" fill="#1A1620"/>
<path transform="translate(667,1419)" d="m0 0 1 2-1 3 17 2v1l-16 1-3-2v-3l-2 1 2-4zm-6 5 2 1-2 4h15l-2 3h-11l-4-1-4-2 5-1v-2l-2-1z" fill="#423F49"/>
<path transform="translate(720,705)" d="m0 0h40l2 2h-16v2l-7 2h-8l2-1v-3l-13-1z" fill="#7F5E44"/>
<path transform="translate(821,748)" d="m0 0h20l14 1-4 2-5 1h-11l-4-1-5 2-4-2z" fill="#AA7F59"/>
<path transform="translate(477,1384)" d="m0 0h3l1 6h-10l-18-2-2-2 23-1z" fill="#0594AF"/>
<path transform="translate(350,1313)" d="m0 0 7 1 5 5 7 9v2l-4 1-3-2-2-7-3-3-8-2-1-3z" fill="#A97F5A"/>
<path transform="translate(81,1040)" d="m0 0 5 4 4 5 13 13-1 2-8-7-2 4-1-5h-3l-7-14z" fill="#424351"/>
<path transform="translate(676,1405)" d="m0 0h1v9l-2 3h-4v5 3l-4-1v-7l6-10z" fill="#93673F"/>
<path transform="translate(594,745)" d="m0 0h5v2l-18 8-10 4h-2l2-4 14-6z" fill="#BD9E71"/>
<path transform="translate(951,631)" d="m0 0 11 2-1 5-13-1-6-3 1-2z" fill="#067FA7"/>
<path transform="translate(434,1341)" d="m0 0h6l1 9-1 14h-1l-1-7-3-3z" fill="#0CABAE"/>
<path transform="translate(357,1319)" d="m0 0 5 5v5l9 1 1 4-3-2-8 4-4-4 1-2-2-1 1-4z" fill="#B59D6E"/>
<path transform="translate(541,867)" d="m0 0 4 2 6 8 6 3 2 3 5 3-4 1-9-1 1-4-3-1v-2l-2-1-1-5h-2z" fill="#B1B2AD"/>
<path transform="translate(236,792)" d="m0 0 12 1h7l10 4 5 4-1 2-8-4-21-4-4-2z" fill="#767780"/>
<path transform="translate(267,1186)" d="m0 0 6 2 2 3 7 4 3 6-5-1-12-9-2-4z" fill="#6D6E78"/>
<path transform="translate(547,894)" d="m0 0 18 3 4 4v2l-3 1-1 2-1-1-9-1v-1l5-1-5-4h-6z" fill="#434351"/>
<path transform="translate(230,787)" d="m0 0h1l-1 13-2 12-2 4-1 10h-1v-11l2-22z" fill="#A87F55"/>
<path transform="translate(538,1239)" d="m0 0h9l-4 2-5 3-7 10-6 5 2 5-5-2 1-5 9-10z" fill="#1C1C27"/>
<path transform="translate(460,1337)" d="m0 0 21 2v2h6v1h-7v-2h-32l18 1v1l-24 1-1-3 3-2z" fill="#434756"/>
<path transform="translate(1039,911)" d="m0 0h1l-1 9-9 21-9 14-1-3 6-10 9-19z" fill="#141721"/>
<path transform="translate(396,1503)" d="m0 0 31 1v1h-26v2l-9 6h-2l2-5z" fill="#464654"/>
<path transform="translate(111,1072)" d="m0 0 4 2 10 7 2 1v2l3 1-10 2-4-5v-4h-2z" fill="#50515D"/>
<path transform="translate(683,1125)" d="m0 0h3v2l-20 8-17 6v-2l16-7 16-6z" fill="#4C4C5A"/>
<path transform="translate(707,1056)" d="m0 0 9 1 4 4-4 1h-11l-4 2-3-1 4-5z" fill="#303648"/>
<path transform="translate(381,1345)" d="m0 0 3 4 2 7v13l-4-2-1-4z" fill="#A17853"/>
<path transform="translate(446,1339)" d="m0 0h23l11 1v2l2 1-2 2v-2l-14-1-18-1z" fill="#0680A7"/>
<path transform="translate(234,964)" d="m0 0 2 3 5 42v5l-2-1-1-3-4-41z" fill="#7C7E85"/>
<path transform="translate(616,1393)" d="m0 0h2l1 5-3 4-2 7h-2v2l-9-1-3-2h5v-3h6l2 2v-7l3-1 1-3-2-1z" fill="#A67D55"/>
<path transform="translate(372,838)" d="m0 0 2 3v13l2 24v11l-4 3-2-1 3-3v-19l-1-12z" fill="#404251"/>
<path transform="translate(514,723)" d="m0 0h32l19 1v1l-25 1-26-2z" fill="#80644F"/>
<path transform="translate(414,1168)" d="m0 0h1v9l1 6-6 10-2-1 1-8 1-2h2v-7z" fill="#1D1F2B"/>
<path transform="translate(238,1165)" d="m0 0 5 1 10 8 1 3h-6l-7-6z" fill="#6B6C76"/>
<path transform="translate(822,769)" d="m0 0h3l-1 5-3 5-3 3-5 2-1-4h2v-2l3-3 3-5z" fill="#B9AE82"/>
<path transform="translate(351,507)" d="m0 0 19 2v1l-23 1-21-1v-1z" fill="#141821"/>
<path transform="translate(565,897)" d="m0 0h15l13 1-1 2-16 1-3-1-5 1z" fill="#787982"/>
<path transform="translate(448,953)" d="m0 0 2 2-8 4-23 11-2-1 12-8 12-5z" fill="#1E202C"/>
<path transform="translate(436,1474)" d="m0 0 18 1v1l-11 2-1 4-11-1z" fill="#454553"/>
<path transform="translate(731,1397)" d="m0 0 1 3-5 9-11 12-6 5-3-1 10-9 10-12z" fill="#131620"/>
<path transform="translate(212,872)" d="m0 0 2 1 3 14v4h2l1 10-3 1-5-25z" fill="#21242E"/>
<path transform="translate(391,1254)" d="m0 0h1l-1 17-2 11-3 9-3 4 1-6 1-1v-6l1-2 1-5 1-2z" fill="#1C1B26"/>
<path transform="translate(218,889)" d="m0 0h2l3 10 4 19-1 3-3-7-3-9z" fill="#2C97A3"/>
<path transform="translate(625,1509)" d="m0 0 3 4 4 9 1 4v13l-2-1-4-20z" fill="#979A9C"/>
<path transform="translate(474,1248)" d="m0 0 6 1v1l-6 2-1 2-4 2-3 7h-3v-7l9-7z" fill="#1A161F"/>
<path transform="translate(724,723)" d="m0 0h6l-4 2-9 3-11 2-15 1 4-2 12-2z" fill="#B69E6E"/>
<path transform="translate(368,1343)" d="m0 0h2l-2 5-8 6-10 4 2-5 14-8z" fill="#BCAA8D"/>
<path transform="translate(276,1164)" d="m0 0 10 6 8 7h-3l-4-3v2l-4-2-10-8z" fill="#313442"/>
<path transform="translate(582,843)" d="m0 0h8l-1 4 6 2 7 1v1h-13l-6-3-2-4z" fill="#FCFBFB"/>
<path transform="translate(894,756)" d="m0 0 44 3v1h-33l-1-1-9-1z" fill="#856955"/>
<path transform="translate(569,725)" d="m0 0h11l19 2 3 3h-13l-12-3-8-1z" fill="#484653"/>
<path transform="translate(533,843)" d="m0 0h6l-10 5-19 1-3 1v-2l10-3h8z" fill="#424352"/>
<path transform="translate(1020,757)" d="m0 0 3 1-1 5-4 4-18 1-1 2-4-2v-3h23z" fill="#4B4C59"/>
<path transform="translate(358,1286)" d="m0 0h2l4 5v3l2 5h-2l-1 2-3-3-4-2-2-6 5 3v2h2l-3-6z" fill="#BD9F76"/>
<path transform="translate(338,1284)" d="m0 0 4 1 3 4-1 3-4 1-1 1h-5l-2-2v-3h2l1 1 3-4z" fill="#BAB283"/>
<path transform="translate(444,1474)" d="m0 0h18l4 2-17 2-5 3 1 2h-5l2-5 5-2z" fill="#292E3E"/>
<path transform="translate(379,1315)" d="m0 0 2 4-1 9-2 4-4-4 2-1-1-7 3-2z" fill="#B49066"/>
<path transform="translate(368,1244)" d="m0 0 4 1-6 10-3 4-2 5h-2l1-7z" fill="#21232F"/>
<path transform="translate(889,870)" d="m0 0 1 2-4 8-1 8-2 1-3-6 1-5z" fill="#B8AD7E"/>
<path transform="translate(820,447)" d="m0 0 3 1 2 5 3 2-2 4-3 3-4-10z" fill="#303648"/>
<path transform="translate(402,1164)" d="m0 0 1 4-1 11-2 2-4-1 1-6z" fill="#3E404F"/>
<path transform="translate(134,1089)" d="m0 0 5 2 8 7-3 1-9-3-2-6z" fill="#B1B3AF"/>
<path transform="translate(241,1025)" d="m0 0 2 4 4 15 6 11h-2l-7-11-3-6z" fill="#161A23"/>
<path transform="translate(390,989)" d="m0 0m-2 1h2l-1 3-10 5-9 4-6 2 4-4 14-7z" fill="#303648"/>
<path transform="translate(397,1400)" d="m0 0h3l-2 5-2 3h-2l-1 3-3-1-2-5 4-1 1-3z" fill="#454755"/>
<path transform="translate(773,717)" d="m0 0 4 2 9 7 7 6-1 2-9-6-8-6z" fill="#BC986C"/>
<path transform="translate(284,1083)" d="m0 0 4 2 4 4 4 5v3h2l-1 2-10-8-2-3v-3z" fill="#474855"/>
<path transform="translate(492,846)" d="m0 0 6 6v10l-3 1-4-13z" fill="#AFA390"/>
<path transform="translate(1047,873)" d="m0 0h2v15l-3 10-2 1v-7h2z" fill="#1C1E28"/>
<path transform="translate(544,1532)" d="m0 0 2 3 3 14-2 2h-6l2-6h2z" fill="#464654"/>
<path transform="translate(310,1340)" d="m0 0 4 2 11 13 2 1v2h-4l-4-6-5-5-4-5z" fill="#F6F3EF"/>
<path transform="translate(497,876)" d="m0 0 5 5 11 4 13 4-1 2-21-6-5-2-2-3z" fill="#424352"/>
<path transform="translate(482,1208)" d="m0 0 3 2-2 7-9 10-3 5h-6v-1h5l2-5 7-8 2-3z" fill="#1A161F"/>
<path transform="translate(231,945)" d="m0 0h2l1 10h2l2 13h-4-1v-10z" fill="#404251"/>
<path transform="translate(251,791)" d="m0 0 13 4 9 5 3 4-2 4v-3l-4-2-5-5-10-4-5-1z" fill="#444553"/>
<path transform="translate(296,741)" d="m0 0h5l17 9v2l-5-1-17-9z" fill="#B8956A"/>
<path transform="translate(1033,550)" d="m0 0 2 3 2 12v17h-1l-3-25z" fill="#81838A"/>
<path transform="translate(431,1253)" d="m0 0 4 1 8 5-1 4-11 12-3 2 2-4 10-11-1-3-8-5z" fill="#1C1B25"/>
<path transform="translate(133,1095)" d="m0 0 11 3 7 3 1 3-14-3z" fill="#ABA99E"/>
<path transform="translate(230,950)" d="m0 0h1l1 8 1 1 1 9 1 1v8h-1v-7h-2l-1 3-2-16z" fill="#272833"/>
<path transform="translate(405,1180)" d="m0 0 2 2-1 8-2 4-4 2 1-7 3-5-1-3z" fill="#18151E"/>
<path transform="translate(416,1164)" d="m0 0h1v8l1-5 4 2-4 9-3 3-1-5z" fill="#454553"/>
<path transform="translate(394,985)" d="m0 0 1 2h-2v2l-11 5-14 7-2-1 18-10z" fill="#464654"/>
<path transform="translate(325,897)" d="m0 0 9 2h15v1l-7 1h-18l-4-2z" fill="#9A9D9E"/>
<path transform="translate(371,511)" d="m0 0h18l-1 3h-16z" fill="#404251"/>
<path transform="translate(618,1428)" d="m0 0h9v1l12 3-2 2-17-2-2-1z" fill="#404251"/>
<path transform="translate(385,1318)" d="m0 0h1l1 9-4 4 2 4h-7l1-7h3l3-1z" fill="#1C1922"/>
<path transform="translate(153,1147)" d="m0 0h2l9 16 3 6-1 2-5-8-6-10z" fill="#767780"/>
<path transform="translate(328,932)" d="m0 0 13 1-3 2-16 1-10-1v-1z" fill="#C0B298"/>
<path transform="translate(808,754)" d="m0 0h1v7l-4 5-9 6-10 1 18-9 3-6z" fill="#444452"/>
<path transform="translate(536,42)" d="m0 0m-2 1 2 1 2 4 8 13 1 5-3-3-7-12-3-3v-2l-2-1z" fill="#3D4453"/>
<path transform="translate(721,1061)" d="m0 0 6 1 1 2v10l-2-3-2 1-1-7-5-2z" fill="#313748"/>
<path transform="translate(114,1053)" d="m0 0 4 2h6l1 5-5-2-3 1v2l-5-2-1-5z" fill="#414250"/>
<path transform="translate(871,162)" d="m0 0 2 1 1 9h-3-3l-1-5z" fill="#464654"/>
<path transform="translate(480,1279)" d="m0 0 5 2 2 4-7 8-1-3 3-7z" fill="#1A161F"/>
<path transform="translate(821,748)" d="m0 0h20v1l-10 2-5 2-4-2z" fill="#A07A59"/>
<path transform="translate(195,698)" d="m0 0 9 1 13 6 3 2-6-1-12-5h-10z" fill="#997352"/>
<path transform="translate(1021,741)" d="m0 0h2l1 12-1 5-3-1z" fill="#393D4D"/>
<path transform="translate(601,730)" d="m0 0v3l-3 3h-2v-2l-5 2h-7l2-3 14-2z" fill="#C0BAAE"/>
<path transform="translate(482,1342)" d="m0 0h5l-2 11-3-1-1-9z" fill="#FEFEFE"/>
<path transform="translate(594,745)" d="m0 0h5v2l-14 6-1-2 2-3z" fill="#B0946C"/>
<path transform="translate(622,1431)" d="m0 0 25 3v2h-12l-12-3z" fill="#151922"/>
<path transform="translate(703,1304)" d="m0 0 2 2 1 8-3 6h-1v-14z" fill="#464654"/>
<path transform="translate(268,1066)" d="m0 0 4 2 5 6 5 5 2 4-4-2-8-9-2-1z" fill="#464654"/>
<path transform="translate(872,947)" d="m0 0h1l1 19h-4l-1-6h2z" fill="#9C7553"/>
<path transform="translate(343,1377)" d="m0 0 8 2 6-1v2l-4 1v2h-6l-4-4z" fill="#F0EBE5"/>
<path transform="translate(441,930)" d="m0 0 2 1-9 5-6 1v2h-2l1-3 5-4z" fill="#AFA592"/>
<path transform="translate(911,1014)" d="m0 0h6l2 2-1 2 5 1-2 3-6-2z" fill="#1C1F2A"/>
<path transform="translate(878,933)" d="m0 0 5 5 1 5 1 4-3-1-4-7-2-1v-3h2z" fill="#BBAF99"/>
<path transform="translate(870,926)" d="m0 0 3 4 2 6-4 2h-2v-7z" fill="#BBAF95"/>
<path transform="translate(633,1410)" d="m0 0h5v7h6v2l-7-1-2-4h-6z" fill="#584B4A"/>
<path transform="translate(766,1060)" d="m0 0 1 2 4-2 4 4-6 4-2-1z" fill="#18151E"/>
<path transform="translate(266,1058)" d="m0 0 8 6 2 4 4 2 2 3-6-2-1-3h-2l-7-8z" fill="#1A161F"/>
<path transform="translate(975,787)" d="m0 0h1l-1 8-6 14h-2l3-9z" fill="#B9AA7C"/>
<path transform="translate(439,214)" d="m0 0 2 4-7 15h-1l1-7z" fill="#62636E"/>
<path transform="translate(632,1524)" d="m0 0 3 3 1 3v7l-2 3h-3l1-2z" fill="#323440"/>
<path transform="translate(302,1329)" d="m0 0 7 2 5-1v2l-6 3h-4l-3-3z" fill="#EDE7DF"/>
<path transform="translate(287,1295)" d="m0 0 2 1-4 5v5l-3 1-2-6v-2z" fill="#BE9E72"/>
<path transform="translate(237,991)" d="m0 0 2 3 2 15v5l-2-1-1-3z" fill="#82838A"/>
<path transform="translate(240,984)" d="m0 0h1l3 15-1 4-2 3-1-10z" fill="#303648"/>
<path transform="translate(697,885)" d="m0 0 1 3 2 1-14 2 5-5z" fill="#9B9E9F"/>
<path transform="translate(557,1285)" d="m0 0 5 1 16 6-1 2-5-1-9-4-6-3z" fill="#1C1C27"/>
<path transform="translate(424,1264)" d="m0 0 1 2-1 12-4 4-2-1 1-4h2l2-12z" fill="#303648"/>
<path transform="translate(708,51)" d="m0 0 5 1-1 4-7 3-2 1 2-5z" fill="#212B38"/>
<path transform="translate(638,1321)" d="m0 0h14l7 2v1l-9 1v-2h-13z" fill="#20222E"/>
<path transform="translate(350,1298)" d="m0 0 3 1v6l-2 1h-7l3-4h3z" fill="#E7E1D8"/>
<path transform="translate(410,1182)" d="m0 0 3 1 1 3-4 7-2-1 1-8z" fill="#19151E"/>
<path transform="translate(845 1e3)" d="m0 0 3 1-7 9-5 2 6-9z" fill="#B9AD80"/>
<path transform="translate(201,779)" d="m0 0 2 1 3 8 3 12-1 3-3-8-1-8h-2l-1-2z" fill="#BEAE9C"/>
<path transform="translate(700,1297)" d="m0 0 2 1 1 8-1 14h-1z" fill="#333849"/>
<path transform="translate(931,416)" d="m0 0 6 2 1 2v7h-2v-3l-3-1-1-4z" fill="#303648"/>
<path transform="translate(974,344)" d="m0 0h4v15h-2l-2-9z" fill="#1B1A24"/>
<path transform="translate(665,1422)" d="m0 0 1 4 6 3-4 1-7-1 1-4z" fill="#10111A"/>
<path transform="translate(625,1398)" d="m0 0h2l-2 6-4 6-2-1 1-5z" fill="#EEEAE3"/>
<path transform="translate(350,1283)" d="m0 0 7 6h2l2 6h-2l-4-4h-2l-3-6z" fill="#B1875C"/>
<path transform="translate(417,1162)" d="m0 0h4l2 6h-3l-2-1-1 7-1-3z" fill="#303647"/>
<path transform="translate(582,836)" d="m0 0 6 2 5-1h7l-3 2-3 1h-10l-3-3z" fill="#ACA99C"/>
<path transform="translate(802,788)" d="m0 0 2 1-5 5-4 1-1-4z" fill="#B5966D"/>
<path transform="translate(603,1304)" d="m0 0h6l-2 4-3 3h-5l2-1 1-4z" fill="#1A161F"/>
<path transform="translate(336,194)" d="m0 0 3 1 1 7h-6z" fill="#6E6F79"/>
<path transform="translate(702,1425)" d="m0 0 2 2-5 5-4 2-4-1 6-4h3z" fill="#3C5365"/>
<path transform="translate(374,1372)" d="m0 0 1 2-16 4 2-4z" fill="#BDAA8D"/>
<path transform="translate(450,1266)" d="m0 0 2 1-15 14-2-1 10-10z" fill="#1C1B25"/>
<path transform="translate(373,1236)" d="m0 0h5l-1 4h-2v2l-4 1-1-3z" fill="#404150"/>
<path transform="translate(119,1081)" d="m0 0 8 1v2l3 1-7 1-3-1z" fill="#72737D"/>
<path transform="translate(425,966)" d="m0 0 2 1-5 4-9 4-3-1z" fill="#464654"/>
<path transform="translate(995,765)" d="m0 0 18 1v1l-13 1-1 2-4-2z" fill="#404252"/>
<path transform="translate(583,733)" d="m0 0 3 1-5 3-7 2h-5v-2l10-2h4z" fill="#C1A073"/>
<path transform="translate(735,1332)" d="m0 0h2l1 2v17h-1z" fill="#0A0F17"/>
<path transform="translate(597,1311)" d="m0 0h2l1 5-5 3h-9v-1l9-2z" fill="#1A161F"/>
<path transform="translate(591,1190)" d="m0 0 4 5 4 10v5l-2-4-6-13z" fill="#1A161F"/>
<path transform="translate(253,1037)" d="m0 0 2 2 6 12 3 4-4-1-7-13z" fill="#1C1B26"/>
<path transform="translate(401,978)" d="m0 0 2 1-11 8-4 2-3-1z" fill="#1E202C"/>
<path transform="translate(225,920)" d="m0 0 2 1 2 10-1 7h-1l-2-13z" fill="#526876"/>
<path transform="translate(641,1409)" d="m0 0 2 4 1 4h-6v-5z" fill="#B4875E"/>
<path transform="translate(634,1405)" d="m0 0v3l-5 6-3 2h-3v-2l4-2 4-5z" fill="#FCFBFA"/>
<path transform="translate(350,1313)" d="m0 0 7 1 1 3-4 1-5-1-1-3z" fill="#8D7B64"/>
<path transform="translate(368,1244)" d="m0 0 4 1-6 10-3 2 2-5 2-6z" fill="#363848"/>
<path transform="translate(868,972)" d="m0 0v3l-7 9-1-3 4-6z" fill="#B8AA7C"/>
<path transform="translate(369,873)" d="m0 0h2l-1 6-1 3-3 1-4 4 2-5 3-4z" fill="#ACA99C"/>
<path transform="translate(866,168)" d="m0 0h2l-2 4-11 11v-3l8-8z" fill="#5E5E6A"/>
<path transform="translate(486,1234)" d="m0 0h2l-2 6h-2l-1 4-3-4z" fill="#1A161F"/>
<path transform="translate(313,1226)" d="m0 0 3 2 2 11-2 3z" fill="#161923"/>
<path transform="translate(292,1183)" d="m0 0 5 5 2 3-1 4-3-3z" fill="#464654"/>
<path transform="translate(122,1087)" d="m0 0 6 1 1 3-1 2h-2l-1 4z" fill="#B4B4AC"/>
<path transform="translate(423,936)" d="m0 0m-1 1m-1 1h5l-5 5-3 2-3-1 5-5z" fill="#B9AF9B"/>
<path transform="translate(226,914)" d="m0 0 2 3 2 8v10l-2-4z" fill="#434352"/>
<path transform="translate(535,889)" d="m0 0 11 1v2h3v2l-10-2v-2l-5 1z" fill="#767780"/>
<path transform="translate(405,825)" d="m0 0 3 1 1 7-4 2z" fill="#C0B298"/>
<path transform="translate(833,824)" d="m0 0 4 1-1 5-5-1-1-3z" fill="#C1A073"/>
<path transform="translate(810,582)" d="m0 0 10 1 3 1v2h-7l-7-1z" fill="#067FA7"/>
<path transform="translate(799,280)" d="m0 0 1 3-6 11h-1v-7l3-1 1-4h2z" fill="#6A6B75"/>
<path transform="translate(346,1326)" d="m0 0 3 1v2l2 1 2 4h2l-1 3-5-1-1-6z" fill="#BAB283"/>
<path transform="translate(609,1282)" d="m0 0h1v19l-5-2 3-4z" fill="#1A161F"/>
<path transform="translate(81,1040)" d="m0 0 4 4 4 8 3 3-5-1-6-12z" fill="#2E303E"/>
<path transform="translate(246,1028)" d="m0 0 3 3 5 10v2h-2v-2h-2l-4-11z" fill="#313748"/>
<path transform="translate(408,975)" d="m0 0 2 1-5 4-8 5-2-1 10-7z" fill="#464654"/>
<path transform="translate(908,920)" d="m0 0 2 2 2 6 4 1-6 2-2-5z" fill="#BAB2A2"/>
<path transform="translate(592,831)" d="m0 0h6v2l-8 2h-5l1-2z" fill="#B0B0AA"/>
<path transform="translate(969,334)" d="m0 0 1 4-5 6-1-4 3-5z" fill="#6D6E78"/>
<path transform="translate(100,1039)" d="m0 0 5 2 9 7-2 1-12-8z" fill="#22252F"/>
<path transform="translate(412,946)" d="m0 0 2 1-11 9-2-1 7-7z" fill="#BAAE98"/>
<path transform="translate(666,1425)" d="m0 0 18 1v1l-16 1-3-2z" fill="#2B2B38"/>
<path transform="translate(643,1408)" d="m0 0h2l2 10h-3l-2-5z" fill="#C09F72"/>
<path transform="translate(626,1394)" d="m0 0 1 3-5 6-3-1 5-7z" fill="#1F1E29"/>
<path transform="translate(491,1291)" d="m0 0 3 1-8 6-5 4-2-1 9-8z" fill="#1C1B25"/>
<path transform="translate(338,1284)" d="m0 0 4 1 3 4-1 3-3-1-3-5z" fill="#B8A578"/>
<path transform="translate(255,999)" d="m0 0 4 5 3 2-2 2h-4z" fill="#E7E2DA"/>
<path transform="translate(785,714)" d="m0 0h3l5 5 5 2v1h-7z" fill="#067FA7"/>
<path transform="translate(649,1411)" d="m0 0h1l2 6 3 4v2h-2v-2l-4-1-1-3z" fill="#B9976D"/>
<path transform="translate(369,1331)" d="m0 0 2 1-2 4h-3v2l-4-1z" fill="#D4CDC1"/>
<path transform="translate(261,1276)" d="m0 0 5 1 3 4-5 1z" fill="#464654"/>
<path transform="translate(252,1258)" d="m0 0h10v1l-9 2-1 5h-2v-6z" fill="#ACA99C"/>
<path transform="translate(728,1106)" d="m0 0h3v2l-9 4h-2l1-3z" fill="#3C3F4F"/>
<path transform="translate(949,899)" d="m0 0 3 1v3h2l1 3-7 2v-2h2v-5z" fill="#9A9083"/>
<path transform="translate(604,830)" d="m0 0h4l1 4-3 2-3-1z" fill="#AFAB9D"/>
<path transform="translate(825,823)" d="m0 0 1 2h2l2 8-3-1-3-5z" fill="#C1A073"/>
<path transform="translate(228,810)" d="m0 0h2v13h-1l-1-8h-2z" fill="#565663"/>
<path transform="translate(357,506)" d="m0 0h7l6 2v1h-11l-2-1z" fill="#1E202C"/>
<path transform="translate(930,395)" d="m0 0 2 2 1 3 2-3v11l-2-2-3-8z" fill="#1E202C"/>
<path transform="translate(984,276)" d="m0 0 5 2 1 9-2-2-2-5-3-1z" fill="#909296"/>
<path transform="translate(524,83)" d="m0 0 2 1-2 5-5 5-2 1 2-4z" fill="#4C4C5A"/>
</svg>
